<svg version="1.1" id="Layer_1" xmlns="http://www.w3.org/2000/svg" xmlns:xlink="http://www.w3.org/1999/xlink" x="0px" y="0px"
	 width="100%" viewBox="0 0 221 228" enable-background="new 0 0 221 228" xml:space="preserve">
<path fill="#FEFEFE" opacity="1.000000" stroke="none" 
	d="
M222.000000,139.000000 
	C222.000000,168.962677 222.000000,198.925369 222.000000,228.943756 
	C148.333328,228.943756 74.666664,228.943756 1.000000,228.943756 
	C1.000000,215.570770 1.000000,202.254044 1.265182,188.692886 
	C4.753448,193.224472 8.610901,194.181015 15.812815,192.031448 
	C15.812815,185.109329 15.812815,178.216675 15.812815,171.155365 
	C10.236894,171.118179 4.698471,169.437531 1.000000,175.000000 
	C1.000000,117.099266 1.000000,59.198532 1.000000,1.000000 
	C28.020164,1.000000 55.041424,1.000000 82.355850,1.318603 
	C72.971001,3.978951 67.361732,12.158567 68.775955,21.867359 
	C70.037834,30.530293 77.363876,36.699280 85.840446,36.625122 
	C87.430992,40.875904 89.239670,40.440598 91.596054,37.458691 
	C92.753609,35.993855 94.534264,35.021400 96.331612,33.803673 
	C97.116631,33.214539 97.602966,32.647854 98.063538,32.117489 
	C98.037773,32.153809 98.099548,32.217972 98.442993,32.133713 
	C100.575394,28.064722 103.466805,24.204866 103.935104,20.070541 
	C105.084038,9.927504 98.603127,4.485283 90.000000,1.000000 
	C133.924988,1.000000 177.849960,1.000000 222.000000,1.000000 
	C222.000000,42.353954 222.000000,83.708321 221.718231,125.321335 
	C219.680801,121.898918 216.441086,121.634323 212.873627,121.693657 
	C212.577194,121.236633 212.322357,121.074203 211.971283,120.684654 
	C211.327316,119.910042 210.724808,119.448456 209.935974,118.733994 
	C208.768600,117.448578 207.787537,116.416023 206.876114,115.009399 
	C206.727356,113.457169 206.508926,112.279015 206.263702,110.629700 
	C205.821533,105.072144 205.406158,99.985748 205.208160,94.673622 
	C207.086746,94.941788 208.747925,95.435692 211.295090,96.193008 
	C209.092239,91.286789 206.518478,90.138779 202.447144,91.611412 
	C199.415665,92.707939 196.170715,93.214363 193.199097,93.696304 
	C193.309921,87.970482 189.417374,86.265602 185.243103,84.574379 
	C193.017029,83.122932 194.400345,81.347954 192.934967,74.404648 
	C192.770981,73.627754 192.410919,72.892250 192.465668,72.011040 
	C192.674545,70.209358 192.559570,68.534187 192.341812,66.460327 
	C191.539978,62.851879 190.906769,59.625977 190.124084,56.436749 
	C189.272736,52.967651 185.575195,51.438976 182.999023,53.797108 
	C179.633530,56.877735 176.712204,60.443581 173.262283,63.847733 
	C172.321915,65.294411 171.719040,66.694023 171.026550,68.444839 
	C170.546448,70.207314 170.155945,71.618591 169.311523,73.027130 
	C148.319168,72.964287 127.780762,72.904182 107.424248,72.540489 
	C110.287743,67.413193 109.396919,65.704147 104.159554,65.681366 
	C102.867477,65.675743 101.574928,65.778526 100.424118,65.546227 
	C107.407135,60.740910 104.379730,55.248482 101.903259,49.967743 
	C101.419441,48.936058 99.826996,48.424282 98.745880,47.672707 
	C99.081047,51.401661 100.197426,54.265968 100.991524,57.217003 
	C101.275269,58.271469 101.198837,60.198639 100.570755,60.596184 
	C96.635628,63.086903 92.498154,65.257919 88.061234,67.672142 
	C87.436913,67.770309 87.178993,67.731079 86.759628,67.423019 
	C83.137703,64.680351 78.650177,62.839230 76.593414,59.500618 
	C75.314346,57.424393 77.787315,53.094616 78.405609,49.744766 
	C78.535797,49.039448 78.094101,47.714088 77.604935,47.537910 
	C76.979729,47.312744 75.701752,47.714428 75.287437,48.275776 
	C71.772789,53.037727 72.146019,60.633663 75.575577,64.896317 
	C73.468330,65.863029 71.752121,66.784576 70.035919,67.706131 
	C71.005219,69.447235 71.974518,71.188332 72.486450,72.992996 
	C69.536110,73.086990 67.043198,73.131073 64.550125,73.145233 
	C57.795139,73.183609 53.641933,75.530067 52.094700,80.200020 
	C50.280407,85.676033 52.114853,89.886993 57.610092,93.982941 
	C50.658318,94.058182 44.176964,94.017776 37.703266,94.221046 
	C36.747353,94.251060 35.827652,95.434280 34.891197,96.083946 
	C35.771778,96.791801 36.555645,97.829269 37.557659,98.123276 
	C38.783051,98.482841 40.191334,98.224136 41.520527,98.224174 
	C73.090508,98.225174 104.660507,98.213036 136.230438,98.254173 
	C138.169067,98.256699 140.107162,98.678391 141.949677,99.309708 
	C140.037109,100.144264 138.221298,100.944595 136.403534,100.948982 
	C104.765373,101.025360 73.126976,101.004089 41.488625,101.004097 
	C39.538696,101.004097 37.588768,101.004097 34.993343,101.004097 
	C34.993343,103.393768 34.993343,105.172218 34.707367,107.147095 
	C32.203571,109.456009 29.985754,111.568497 27.591520,113.855347 
	C27.229538,114.338348 27.208822,114.657677 27.241600,115.357262 
	C27.176773,116.494553 27.223303,117.262299 27.199995,118.372040 
	C26.787224,120.353416 25.643915,122.992531 26.234743,123.465530 
	C29.427265,126.021393 33.049416,128.040604 36.567471,130.538513 
	C36.347298,131.321030 36.083096,131.809891 35.477173,132.306564 
	C33.228531,133.265518 30.975121,133.850372 29.493900,135.251511 
	C27.125137,137.492249 24.032009,139.800232 25.918879,144.292419 
	C22.033283,152.317627 23.526173,159.001709 29.132854,165.023438 
	C28.425867,167.076050 28.118910,168.952606 27.387936,170.873962 
	C25.943888,171.643600 24.066961,172.336594 24.038691,173.098221 
	C23.801630,179.484711 23.903818,185.883804 23.903818,192.917572 
	C26.814896,192.917572 29.245573,192.917572 31.665066,193.312378 
	C32.304752,198.112625 35.178272,194.739853 36.919785,195.648621 
	C29.131706,198.918655 26.655661,202.652908 28.350233,208.954208 
	C29.929140,214.825424 34.719299,218.667160 41.074978,218.926620 
	C45.044472,219.088669 49.024834,218.984329 53.276756,219.289688 
	C56.503231,219.602737 59.905079,221.831314 62.441620,217.932358 
	C68.226868,218.280869 73.603920,218.539810 79.441994,218.895508 
	C98.320686,218.988937 116.738350,218.985611 135.344666,219.372284 
	C136.241013,220.204453 136.948715,220.646652 137.568329,221.518433 
	C135.450623,223.719528 133.421036,225.491028 130.976410,227.624786 
	C134.337143,227.624786 137.044174,227.624786 140.101776,227.624786 
	C139.115219,225.216003 138.268188,223.147934 137.868378,220.951385 
	C138.850845,220.538589 139.386093,220.254288 140.365540,219.977219 
	C142.300140,219.950867 143.790527,219.917252 145.523895,220.103882 
	C147.182892,219.894379 148.598938,219.464615 150.482452,219.048706 
	C171.060364,219.061935 191.171143,219.109192 211.280502,218.962524 
	C212.764023,218.951691 214.237366,217.543808 215.715439,216.785431 
	C214.265656,216.169586 212.819061,215.026169 211.365631,215.017395 
	C190.923538,214.894241 170.480515,214.925568 149.947083,214.514679 
	C149.899567,212.739883 149.942703,211.369827 150.455368,209.999512 
	C172.480652,209.999252 194.036407,209.999252 215.370575,209.999252 
	C216.920868,204.554398 215.196930,202.896362 210.420654,202.933746 
	C190.288727,203.091354 170.154785,202.994629 149.947601,202.566711 
	C149.924881,200.422958 149.976135,198.703445 150.492218,196.947662 
	C156.268402,196.905045 161.579758,196.894180 166.891113,196.893280 
	C181.829422,196.890732 196.767731,196.899521 211.706039,196.885040 
	C214.139572,196.882675 217.288742,197.408035 214.715729,193.072556 
	C214.495834,192.960419 214.004913,193.012573 213.542328,192.927399 
	C207.316849,192.828079 201.552246,192.896027 195.791489,192.777252 
	C189.754517,192.652817 183.721222,192.349182 178.048920,192.009125 
	C183.649078,186.744217 183.399323,176.565567 178.330902,171.225983 
	C181.161530,170.870346 185.001099,171.732010 181.732910,167.056396 
	C181.500061,166.993744 181.026657,167.085571 180.563309,166.998718 
	C172.724457,166.973450 165.348953,167.035034 157.734283,167.047516 
	C157.495102,166.998428 157.009018,167.045288 156.976181,166.652740 
	C156.830063,165.747681 156.716782,165.235199 156.638855,164.726898 
	C156.674225,164.731094 156.725891,164.780090 157.210602,164.847015 
	C165.137695,164.938980 172.582245,165.055389 180.019928,164.880493 
	C181.018539,164.857025 182.641083,163.465195 182.786072,162.523911 
	C182.945953,161.485962 181.725098,159.226181 181.122528,159.232056 
	C172.747650,159.313324 164.375641,159.692383 155.773087,159.853699 
	C155.318680,159.223511 155.094131,158.738358 155.144806,157.917099 
	C163.021698,157.387329 170.625076,157.240555 178.223877,156.967148 
	C180.138779,156.898254 183.234619,157.940872 182.734314,154.378799 
	C182.597321,153.403366 179.945511,152.147430 178.418564,152.106415 
	C170.118805,151.883453 161.809143,151.941772 153.504913,152.053299 
	C151.971786,152.073898 150.447906,152.782669 148.574371,153.112610 
	C147.911285,152.170181 147.086792,150.769272 147.364426,150.498535 
	C148.510574,149.380859 149.990784,148.605759 151.792526,147.747421 
	C162.337372,147.790085 172.437912,147.790085 182.773132,147.790085 
	C182.849396,146.074951 182.907196,144.775269 183.436417,143.443909 
	C186.796478,143.306473 189.685120,143.200745 192.630859,143.427948 
	C195.632446,144.714996 198.576920,145.669083 202.294998,146.873856 
	C201.741394,144.728897 201.540863,143.951950 201.843979,143.258743 
	C206.007828,143.354370 209.678589,143.197006 213.325348,143.424408 
	C217.191238,143.665451 220.145355,142.511261 222.000000,139.000000 
z"/>
<path fill="#3A3A39" opacity="1.000000" stroke="none" 
	d="
M89.562500,1.000000 
	C98.603127,4.485283 105.084038,9.927504 103.935104,20.070541 
	C103.466805,24.204866 100.575394,28.064722 98.317894,31.734112 
	C98.545082,28.881100 99.552361,26.382084 99.872978,23.797876 
	C100.584274,18.064854 97.052589,15.393130 91.311234,15.577638 
	C86.229233,15.740955 83.398682,17.914585 82.263412,21.362654 
	C80.179565,21.704298 78.921394,21.910574 77.663223,22.116852 
	C77.992203,23.265173 78.010101,24.669603 78.706482,25.515438 
	C81.127090,28.455532 83.832329,31.160360 86.286545,34.074883 
	C86.590729,34.436119 86.036201,35.520451 85.879578,36.269714 
	C77.363876,36.699280 70.037834,30.530293 68.775955,21.867359 
	C67.361732,12.158567 72.971001,3.978951 82.824509,1.318603 
	C85.041664,1.000000 87.083336,1.000000 89.562500,1.000000 
z"/>
<path fill="#5555B5" opacity="1.000000" stroke="none" 
	d="
M222.000000,138.536819 
	C220.145355,142.511261 217.191238,143.665451 213.325348,143.424408 
	C209.678589,143.197006 206.007828,143.354370 201.566132,143.168777 
	C199.120697,141.722244 197.456772,140.449402 196.155212,138.989655 
	C197.345520,137.236526 198.723740,135.726303 198.889862,134.092819 
	C199.265976,130.394348 199.044479,126.635109 199.521027,122.944565 
	C203.653778,122.947670 207.331512,122.906799 211.321716,122.903625 
	C212.079453,122.594994 212.524734,122.248672 212.970001,121.902359 
	C216.441086,121.634323 219.680801,121.898918 221.718231,125.789993 
	C222.000000,130.024551 222.000000,134.049088 222.000000,138.536819 
z"/>
<path fill="#6FB6B6" opacity="1.000000" stroke="none" 
	d="
M1.000000,175.463181 
	C4.698471,169.437531 10.236894,171.118179 15.812815,171.155365 
	C15.812815,178.216675 15.812815,185.109329 15.812815,192.031448 
	C8.610901,194.181015 4.753448,193.224472 1.265182,188.224228 
	C1.000000,183.975449 1.000000,179.950912 1.000000,175.463181 
z"/>
<path fill="#5555B5" opacity="1.000000" stroke="none" 
	d="
M192.573746,143.095016 
	C189.685120,143.200745 186.796478,143.306473 182.992126,143.316406 
	C173.710434,143.128174 165.344482,143.035721 156.833862,142.657745 
	C155.773468,141.939514 154.857742,141.506805 153.649597,141.038940 
	C152.972565,140.924530 152.587952,140.845245 152.164322,140.410049 
	C152.085236,139.088242 152.045166,138.122360 152.217728,136.984024 
	C151.945847,135.661270 151.461334,134.510956 151.118759,133.000153 
	C152.349152,127.639107 150.500031,125.134041 145.851273,125.651985 
	C141.654449,126.119576 137.492218,126.897621 133.267059,127.546082 
	C133.525177,130.578125 133.770477,133.459671 134.004517,136.665771 
	C133.985641,137.425537 133.978043,137.860733 134.058289,138.511444 
	C134.146835,139.037125 134.140305,139.347137 134.070084,140.036972 
	C133.984665,140.926163 133.955734,141.435364 133.708694,141.963013 
	C133.490601,141.981461 133.066940,142.091721 132.801025,142.048492 
	C132.355530,142.009521 132.175964,142.013794 131.713562,142.029556 
	C130.971268,142.318695 130.511841,142.596359 129.583313,142.929031 
	C114.380394,143.112839 99.646545,143.241623 84.628670,143.316162 
	C83.961853,143.239044 83.579063,143.216187 82.917801,142.921051 
	C78.156868,137.829971 78.435677,126.768112 83.617950,122.029816 
	C102.300629,122.021973 120.524971,122.026085 138.748779,121.929497 
	C140.846680,121.918373 142.941635,121.346100 145.198669,121.397751 
	C150.877289,121.777473 156.395187,121.793449 162.219238,122.012337 
	C165.779510,121.816673 169.033615,121.418091 172.639832,121.212173 
	C176.910812,121.604385 180.828430,121.940208 184.748810,121.976212 
	C194.005783,122.061226 193.915222,122.004997 194.062012,130.996124 
	C194.106415,133.716370 194.808090,136.425903 195.041229,139.403915 
	C194.107086,140.809998 193.340424,141.952515 192.573746,143.095016 
M87.103836,131.652954 
	C87.834366,135.927094 90.795822,138.003235 93.057854,135.637573 
	C94.070007,134.579071 94.580658,131.656616 93.848366,130.583786 
	C91.937798,127.784714 89.396011,128.255569 87.103836,131.652954 
M103.954185,136.160400 
	C104.584984,134.458786 105.552773,132.780518 105.673073,131.043549 
	C105.718262,130.390961 103.793442,129.019058 102.771423,129.023621 
	C101.507034,129.029236 99.818802,129.807236 99.070999,130.814026 
	C97.256248,133.257294 99.048805,135.536514 103.954185,136.160400 
M111.034081,135.178223 
	C112.828644,135.308319 114.822517,135.948547 116.335304,135.357468 
	C117.114548,135.053024 117.769241,132.060242 117.167274,131.173065 
	C116.363724,129.988800 114.134262,128.885635 112.782875,129.142944 
	C109.919533,129.688126 109.472412,132.015335 111.034081,135.178223 
z"/>
<path fill="#71B6B7" opacity="1.000000" stroke="none" 
	d="
M145.037949,121.033997 
	C142.941635,121.346100 140.846680,121.918373 138.748779,121.929497 
	C120.524971,122.026085 102.300629,122.021973 83.136246,122.014099 
	C70.736526,121.868828 59.277020,121.757278 48.011555,121.352173 
	C48.531738,119.955132 48.857880,118.851646 49.640759,117.745018 
	C79.637657,117.751945 109.177826,117.771652 138.717941,117.742805 
	C140.154831,117.741402 141.591293,117.313950 143.392120,117.086121 
	C148.515091,115.603767 150.854156,112.096695 150.537430,107.396523 
	C150.241028,102.998260 147.939865,99.629257 142.770477,98.961075 
	C142.532288,98.910912 142.045502,98.905060 142.045502,98.905060 
	C140.107162,98.678391 138.169067,98.256699 136.230438,98.254173 
	C104.660507,98.213036 73.090508,98.225174 41.520527,98.224174 
	C40.191334,98.224136 38.783051,98.482841 37.557659,98.123276 
	C36.555645,97.829269 35.771778,96.791801 34.891197,96.083946 
	C35.827652,95.434280 36.747353,94.251060 37.703266,94.221046 
	C44.176964,94.017776 50.658318,94.058182 58.028248,94.012115 
	C70.562279,94.187103 82.205254,94.369781 94.313644,94.686127 
	C111.550682,94.798576 128.322311,94.777359 145.302094,94.797363 
	C145.510269,94.838585 145.902603,95.000526 146.127686,95.257645 
	C152.013199,97.988899 154.909363,102.716934 154.631409,108.483521 
	C154.346817,114.388290 151.205902,119.121185 145.037949,121.033997 
z"/>
<path fill="#FE5A4F" opacity="1.000000" stroke="none" 
	d="
M93.848228,94.552460 
	C82.205254,94.369781 70.562279,94.187103 58.501144,93.975266 
	C52.114853,89.886993 50.280407,85.676033 52.094700,80.200020 
	C53.641933,75.530067 57.795139,73.183609 64.550125,73.145233 
	C67.043198,73.131073 69.536110,73.086990 72.863708,73.065735 
	C75.906975,73.754654 78.115623,74.434395 80.110481,75.403244 
	C78.284035,76.400833 76.671387,77.109314 74.897003,77.888847 
	C76.003510,79.767189 76.955109,81.382576 77.954926,83.079826 
	C80.993835,81.329094 83.734001,79.750473 86.869232,78.145157 
	C87.520561,78.181725 87.776848,78.244972 88.009155,78.689194 
	C86.112061,86.116760 87.507675,89.559219 93.947937,94.046677 
	C93.906723,94.213600 93.848228,94.552452 93.848228,94.552460 
z"/>
<path fill="#EEF1F1" opacity="1.000000" stroke="none" 
	d="
M141.949677,99.309708 
	C142.045502,98.905060 142.532288,98.910912 142.740082,99.405548 
	C142.864349,102.273422 142.780823,104.646667 142.249069,107.015228 
	C107.968124,107.066261 74.135391,107.121964 39.935883,107.294029 
	C38.043854,107.257149 36.518597,107.103905 34.993343,106.950661 
	C34.993343,105.172218 34.993343,103.393768 34.993343,101.004097 
	C37.588768,101.004097 39.538696,101.004097 41.488625,101.004097 
	C73.126976,101.004089 104.765373,101.025360 136.403534,100.948982 
	C138.221298,100.944595 140.037109,100.144264 141.949677,99.309708 
z"/>
<path fill="#393838" opacity="1.000000" stroke="none" 
	d="
M154.869583,158.253189 
	C155.094131,158.738358 155.318680,159.223511 155.803864,160.207611 
	C156.284958,162.064377 156.505417,163.422241 156.725891,164.780090 
	C156.725891,164.780090 156.674225,164.731094 156.306534,164.777130 
	C151.190781,165.194290 153.380753,168.815582 152.637283,171.461456 
	C152.200058,177.474060 152.073303,183.233353 151.484741,189.011520 
	C145.978119,189.148026 140.933304,189.265656 135.565765,189.066025 
	C135.027542,182.911423 134.812027,177.074066 134.534973,170.814926 
	C134.387863,167.901031 135.131485,164.874603 130.896057,164.881302 
	C130.798141,164.769043 130.501450,164.796127 130.402374,164.458466 
	C130.603424,162.776321 130.903549,161.431824 131.455978,159.909302 
	C132.238007,158.854660 132.767715,157.978043 133.606598,156.993118 
	C135.638641,155.848145 137.361511,154.811478 139.432343,153.909241 
	C142.075607,157.307007 144.399124,159.489899 147.181198,154.433990 
	C147.389847,154.054794 148.300491,154.061874 149.178467,154.061951 
	C151.271271,155.574066 153.070435,156.913620 154.869583,158.253189 
z"/>
<path fill="#393838" opacity="1.000000" stroke="none" 
	d="
M26.054626,143.925125 
	C24.032009,139.800232 27.125137,137.492249 29.493900,135.251511 
	C30.975121,133.850372 33.228531,133.265518 35.485847,132.676163 
	C38.654816,139.763824 40.791752,134.050766 43.515434,132.729126 
	C50.107903,135.786942 52.092121,138.624329 51.198589,143.902802 
	C50.170109,145.703018 48.878784,147.545959 49.038551,149.253113 
	C49.636925,155.646942 47.881275,160.850494 42.729572,164.834549 
	C41.978088,165.415695 41.490971,166.338684 40.490604,167.078094 
	C39.048401,167.036560 37.997131,167.020416 36.787445,166.713898 
	C31.676828,161.716644 27.094568,157.020462 29.566103,149.063568 
	C29.978319,147.736481 30.018669,143.711334 26.054626,143.925125 
z"/>
<path fill="#6B6BD2" opacity="1.000000" stroke="none" 
	d="
M135.156036,218.982285 
	C116.738350,218.985611 98.320686,218.988937 79.381546,218.571869 
	C68.173759,209.716782 70.366302,198.053604 81.465363,192.991379 
	C99.913605,192.946167 117.893219,192.921509 135.902130,193.243347 
	C135.802399,194.719223 135.673370,195.848587 135.038879,196.937561 
	C118.556099,196.889404 102.578697,196.907364 86.601509,196.857666 
	C82.017403,196.843399 78.456589,198.238876 76.788467,203.298889 
	C76.953568,205.764481 77.313873,207.932709 77.800552,210.442657 
	C81.095505,212.165558 84.233566,214.652679 87.437813,214.741119 
	C103.388145,215.181229 119.355904,214.990219 135.515106,215.268951 
	C135.527130,216.671753 135.341583,217.827011 135.156036,218.982285 
z"/>
<path fill="#6FB3B4" opacity="1.000000" stroke="none" 
	d="
M151.946548,188.992630 
	C152.073303,183.233353 152.200058,177.474060 152.967438,171.652588 
	C153.765869,177.196518 153.828690,182.808228 154.159103,188.404144 
	C154.227783,189.567230 155.288071,190.671783 155.891357,191.803314 
	C156.577866,190.730698 157.815903,189.679596 157.858719,188.581879 
	C158.085266,182.775452 158.011063,176.957260 158.505646,171.114532 
	C165.282196,171.157837 171.594208,171.229767 177.906235,171.301682 
	C183.399323,176.565567 183.649078,186.744217 177.719879,192.201294 
	C168.062622,192.627029 159.097015,192.745850 150.241531,192.579071 
	C150.883301,191.193176 151.414917,190.092911 151.946548,188.992630 
z"/>
<path fill="#3A3938" opacity="1.000000" stroke="none" 
	d="
M185.123245,84.952698 
	C189.417374,86.265602 193.309921,87.970482 192.886841,93.736290 
	C191.560059,94.655708 190.723801,95.247833 189.544647,96.104919 
	C189.120377,101.603485 189.039001,106.837082 188.712433,112.371292 
	C186.629684,112.850983 184.792145,113.030060 182.509628,113.152267 
	C179.079865,113.044983 176.095047,112.994560 173.069260,112.483025 
	C172.697098,106.983452 172.365921,101.944992 171.832184,96.653168 
	C170.794662,96.178772 169.959686,95.957741 168.783508,95.447273 
	C167.962601,94.803375 167.482880,94.448921 166.964340,93.945740 
	C166.610352,93.125107 166.295181,92.453186 166.367035,91.714249 
	C170.175888,89.333496 173.597717,87.019753 177.316772,84.925110 
	C180.657104,89.353088 181.859970,89.329308 184.486755,85.009117 
	C184.699997,85.005684 185.123245,84.952698 185.123245,84.952698 
z"/>
<path fill="#F5F5F5" opacity="1.000000" stroke="none" 
	d="
M150.021591,202.990967 
	C170.154785,202.994629 190.288727,203.091354 210.420654,202.933746 
	C215.196930,202.896362 216.920868,204.554398 215.370575,209.999252 
	C194.036407,209.999252 172.480652,209.999252 150.391800,209.564758 
	C149.912994,207.083817 149.967300,205.037399 150.021591,202.990967 
z"/>
<path fill="#5555B5" opacity="1.000000" stroke="none" 
	d="
M80.996742,193.011932 
	C70.366302,198.053604 68.173759,209.716782 78.920532,218.475113 
	C73.603920,218.539810 68.226868,218.280869 62.257908,217.654678 
	C51.389950,210.167770 52.493923,199.539429 64.637520,193.030762 
	C70.389435,193.048218 75.693085,193.030075 80.996742,193.011932 
z"/>
<path fill="#5959B7" opacity="1.000000" stroke="none" 
	d="
M53.000320,218.999512 
	C49.024834,218.984329 45.044472,219.088669 41.074978,218.926620 
	C34.719299,218.667160 29.929140,214.825424 28.350233,208.954208 
	C26.655661,202.652908 29.131706,198.918655 36.931087,195.375000 
	C36.969330,194.127060 36.965450,193.580658 37.392303,193.030884 
	C40.586384,193.697250 43.349728,194.366959 46.084740,195.450043 
	C46.047882,196.691345 46.218769,197.569321 46.003971,198.339752 
	C42.674400,210.282059 43.320309,212.227112 53.000320,218.999512 
z"/>
<path fill="#986C5C" opacity="1.000000" stroke="none" 
	d="
M85.840439,36.625122 
	C86.036201,35.520451 86.590729,34.436119 86.286545,34.074883 
	C83.832329,31.160360 81.127090,28.455532 78.706482,25.515438 
	C78.010101,24.669603 77.992203,23.265173 77.663223,22.116852 
	C78.921394,21.910574 80.179565,21.704298 82.263412,21.362654 
	C83.398682,17.914585 86.229233,15.740955 91.311234,15.577638 
	C97.052589,15.393130 100.584274,18.064854 99.872978,23.797876 
	C99.552361,26.382084 98.545082,28.881100 97.974457,31.818371 
	C98.099548,32.217972 98.037773,32.153809 97.737076,32.029465 
	C96.968559,32.545452 96.500748,33.185787 96.032936,33.826118 
	C94.534264,35.021400 92.753609,35.993855 91.596054,37.458691 
	C89.239670,40.440598 87.430992,40.875904 85.840439,36.625122 
z"/>
<path fill="#3B79BB" opacity="1.000000" stroke="none" 
	d="
M149.947601,202.566711 
	C149.967300,205.037399 149.912994,207.083817 149.922256,209.565002 
	C149.942703,211.369827 149.899567,212.739883 149.927216,214.925919 
	C150.003647,216.839539 150.009323,217.937195 150.014984,219.034851 
	C148.598938,219.464615 147.182892,219.894379 145.381866,219.792511 
	C144.467072,218.275970 143.268494,216.649246 143.506561,216.401154 
	C147.975372,211.744247 145.129318,206.171738 145.702728,200.665680 
	C144.709900,198.546722 143.621246,196.811371 142.532578,195.076019 
	C141.591827,196.910370 140.549622,198.702744 139.764191,200.601349 
	C139.481110,201.285614 139.814987,202.225082 139.775208,203.478958 
	C139.762497,209.263199 139.841919,214.616577 139.921326,219.969971 
	C139.386093,220.254288 138.850845,220.538589 137.900223,220.961090 
	C137.484848,221.099289 137.656433,221.088852 137.656433,221.088852 
	C136.948715,220.646652 136.241013,220.204453 135.344666,219.372284 
	C135.341583,217.827011 135.527130,216.671753 135.646637,214.932968 
	C135.613632,212.906586 135.646652,211.463715 135.763977,209.629349 
	C135.761292,207.168808 135.674316,205.099762 135.660065,202.604660 
	C135.669983,200.445053 135.607162,198.711517 135.544342,196.977966 
	C135.673370,195.848587 135.802399,194.719223 135.931717,192.893448 
	C135.917511,191.259125 135.903000,190.321198 135.888504,189.383270 
	C140.933304,189.265656 145.978119,189.148026 151.484741,189.011520 
	C151.414917,190.092911 150.883301,191.193176 150.204498,192.993561 
	C150.047333,194.790436 150.037354,195.887192 150.027374,196.983948 
	C149.976135,198.703445 149.924881,200.422958 149.947601,202.566711 
z"/>
<path fill="#3073B5" opacity="1.000000" stroke="none" 
	d="
M80.324280,75.114136 
	C78.115623,74.434395 75.906975,73.754654 73.321060,73.002174 
	C71.974518,71.188332 71.005219,69.447235 70.035919,67.706131 
	C71.752121,66.784576 73.468330,65.863029 75.889290,65.046959 
	C78.403862,66.267059 80.095497,67.784233 82.062973,68.361847 
	C83.493484,68.781807 85.288551,67.960007 86.921074,67.691849 
	C87.178993,67.731079 87.436913,67.770309 88.299896,67.919968 
	C93.617676,72.058533 96.636208,67.320648 100.282600,65.831467 
	C101.574928,65.778526 102.867477,65.675743 104.159554,65.681366 
	C109.396919,65.704147 110.287743,67.413193 107.076523,72.684814 
	C104.945549,73.815071 103.344200,74.497414 101.541321,75.239990 
	C100.992310,75.515137 100.644836,75.730034 99.875381,75.942749 
	C97.262497,76.801765 95.071579,77.662964 92.625580,78.735809 
	C92.086998,79.286331 91.803520,79.625206 91.293625,79.784897 
	C90.055847,79.173210 89.044487,78.740715 88.033127,78.308212 
	C87.776848,78.244972 87.520561,78.181725 86.673126,77.881775 
	C84.162735,76.801430 82.243507,75.957787 80.324280,75.114136 
z"/>
<path fill="#F0F0F3" opacity="1.000000" stroke="none" 
	d="
M53.276756,219.289688 
	C43.320309,212.227112 42.674400,210.282059 46.003971,198.339752 
	C46.218769,197.569321 46.047882,196.691345 46.470390,195.415924 
	C49.883892,194.220627 52.883404,193.472794 56.337540,192.773209 
	C59.257866,192.879379 61.723564,192.937271 64.189262,192.995178 
	C52.493923,199.539429 51.389950,210.167770 61.849716,217.565109 
	C59.905079,221.831314 56.503231,219.602737 53.276756,219.289688 
z"/>
<path fill="#6868D1" opacity="1.000000" stroke="none" 
	d="
M150.482452,219.048721 
	C150.009323,217.937195 150.003647,216.839539 150.017853,215.330627 
	C170.480515,214.925568 190.923538,214.894241 211.365631,215.017395 
	C212.819061,215.026169 214.265656,216.169586 215.715439,216.785431 
	C214.237366,217.543808 212.764023,218.951691 211.280502,218.962524 
	C191.171143,219.109192 171.060364,219.061935 150.482452,219.048721 
z"/>
<path fill="#7170D4" opacity="1.000000" stroke="none" 
	d="
M150.492218,196.947662 
	C150.037354,195.887192 150.047333,194.790436 150.094360,193.279175 
	C159.097015,192.745850 168.062622,192.627029 177.357285,192.316040 
	C183.721222,192.349182 189.754517,192.652817 195.791489,192.777252 
	C201.552246,192.896027 207.316849,192.828079 213.610809,193.088272 
	C214.406464,193.284454 214.671036,193.234573 214.935623,193.184692 
	C217.288742,197.408035 214.139572,196.882675 211.706039,196.885040 
	C196.767731,196.899521 181.829422,196.890732 166.891113,196.893280 
	C161.579758,196.894180 156.268402,196.905045 150.492218,196.947662 
z"/>
<path fill="#E1403D" opacity="1.000000" stroke="none" 
	d="
M101.742859,75.179749 
	C103.344200,74.497414 104.945549,73.815071 106.894623,72.988403 
	C127.780762,72.904182 148.319168,72.964287 169.354187,73.354599 
	C169.649139,74.525032 169.447479,75.365250 168.750626,76.215546 
	C147.768463,76.227997 127.281425,76.255020 106.794701,76.187111 
	C105.109657,76.181526 103.426758,75.530746 101.742859,75.179749 
z"/>
<path fill="#1F5F92" opacity="1.000000" stroke="none" 
	d="
M182.954590,113.209137 
	C184.792145,113.030060 186.629684,112.850983 189.006653,112.176025 
	C191.588715,107.444435 193.631363,103.208717 195.910889,98.696030 
	C199.095428,97.245834 202.043106,96.072601 204.990784,94.899361 
	C205.406158,99.985748 205.821533,105.072144 205.871643,110.709000 
	C202.375931,113.196548 202.154037,110.938271 202.088516,108.786331 
	C201.991531,105.601028 202.063431,102.410576 202.063431,99.222321 
	C201.509644,99.129517 200.955872,99.036713 200.402084,98.943909 
	C198.141556,104.914391 195.881042,110.884872 193.183395,116.794327 
	C190.791595,116.495720 188.741287,116.543365 186.912552,115.930183 
	C185.453186,115.440834 184.263809,114.146278 182.954590,113.209137 
z"/>
<path fill="#E5E9EF" opacity="1.000000" stroke="none" 
	d="
M193.620514,116.855354 
	C195.881042,110.884872 198.141556,104.914391 200.402084,98.943909 
	C200.955872,99.036713 201.509644,99.129517 202.063431,99.222321 
	C202.063431,102.410576 201.991531,105.601028 202.088516,108.786331 
	C202.154037,110.938271 202.375931,113.196548 205.898453,111.180161 
	C206.508926,112.279015 206.727356,113.457169 206.523041,114.879211 
	C204.245453,116.262741 202.390579,117.402390 200.535721,118.542038 
	C200.823715,119.176834 201.111710,119.811630 201.399719,120.446419 
	C204.307236,119.959908 207.214767,119.473389 210.122299,118.986870 
	C210.724808,119.448456 211.327316,119.910042 211.729691,120.833473 
	C211.356125,121.818863 211.182678,122.342392 211.009247,122.865936 
	C207.331512,122.906799 203.653778,122.947670 199.473587,122.592850 
	C197.187592,120.416557 195.404053,118.635956 193.620514,116.855354 
z"/>
<path fill="#DE5354" opacity="1.000000" stroke="none" 
	d="
M152.203339,140.765961 
	C152.587952,140.845245 152.972565,140.924530 153.797760,141.323975 
	C155.151733,142.077179 156.065125,142.510223 156.978516,142.943268 
	C165.344482,143.035721 173.710434,143.128174 182.520691,143.348114 
	C182.907196,144.775269 182.849396,146.074951 182.773132,147.790085 
	C172.437912,147.790085 162.337372,147.790085 151.902802,147.467392 
	C151.459503,146.049484 151.350220,144.954285 151.150330,143.521835 
	C151.004639,142.958435 150.949570,142.732269 150.950165,142.230377 
	C151.404999,141.558411 151.804169,141.162186 152.203339,140.765961 
z"/>
<path fill="#F4F4F4" opacity="1.000000" stroke="none" 
	d="
M155.144806,157.917099 
	C153.070435,156.913620 151.271271,155.574066 149.192810,153.883499 
	C148.913498,153.532501 148.919754,153.173798 148.919754,153.173798 
	C150.447906,152.782669 151.971786,152.073898 153.504913,152.053299 
	C161.809143,151.941772 170.118805,151.883453 178.418564,152.106415 
	C179.945511,152.147430 182.597321,153.403366 182.734314,154.378799 
	C183.234619,157.940872 180.138779,156.898254 178.223877,156.967148 
	C170.625076,157.240555 163.021698,157.387329 155.144806,157.917099 
z"/>
<path fill="#EE549E" opacity="1.000000" stroke="none" 
	d="
M173.599777,63.800671 
	C176.712204,60.443581 179.633530,56.877735 182.999023,53.797108 
	C185.575195,51.438976 189.272736,52.967651 190.124084,56.436749 
	C190.906769,59.625977 191.539978,62.851879 191.917969,66.385300 
	C185.597870,65.739540 179.598816,64.770103 173.599777,63.800671 
z"/>
<path fill="#F4F4F4" opacity="1.000000" stroke="none" 
	d="
M157.210602,164.847015 
	C156.505417,163.422241 156.284958,162.064377 156.033722,160.352631 
	C164.375641,159.692383 172.747650,159.313324 181.122528,159.232056 
	C181.725098,159.226181 182.945953,161.485962 182.786072,162.523911 
	C182.641083,163.465195 181.018539,164.857025 180.019928,164.880493 
	C172.582245,165.055389 165.137695,164.938980 157.210602,164.847015 
z"/>
<path fill="#71B5B6" opacity="1.000000" stroke="none" 
	d="
M31.676247,192.917572 
	C29.245573,192.917572 26.814896,192.917572 23.903818,192.917572 
	C23.903818,185.883804 23.801630,179.484711 24.038691,173.098221 
	C24.066961,172.336594 25.943888,171.643600 27.452436,171.296539 
	C28.306753,174.089966 28.480705,176.554947 29.085951,178.909042 
	C29.878202,181.990524 31.011179,184.984390 32.029205,188.325134 
	C32.101631,188.837570 32.142448,189.040817 32.157951,189.554688 
	C31.980509,190.882736 31.828379,191.900146 31.676247,192.917572 
z"/>
<path fill="#F6CBB1" opacity="1.000000" stroke="none" 
	d="
M148.574371,153.112610 
	C148.919754,153.173798 148.913498,153.532501 148.899139,153.710938 
	C148.300491,154.061874 147.389847,154.054794 147.181198,154.433990 
	C144.399124,159.489899 142.075607,157.307007 139.416183,153.726044 
	C139.052048,153.408386 139.054199,153.040176 139.392059,153.016937 
	C140.051926,152.276230 140.775406,151.029572 140.634338,150.922562 
	C139.096542,149.755920 137.423431,148.767654 135.775330,147.424744 
	C135.479691,146.369064 135.195892,145.619461 135.360687,144.891968 
	C137.919418,144.240417 140.029572,143.566788 142.303192,142.799316 
	C142.902435,142.141891 143.338226,141.578293 143.826202,141.324188 
	C144.162704,142.173904 144.447006,142.714142 144.940460,143.555237 
	C147.180069,143.857071 149.210510,143.858063 151.240936,143.859070 
	C151.350220,144.954285 151.459503,146.049484 151.458496,147.424728 
	C149.990784,148.605759 148.510574,149.380859 147.364426,150.498535 
	C147.086792,150.769272 147.911285,152.170181 148.574371,153.112610 
z"/>
<path fill="#9B7060" opacity="1.000000" stroke="none" 
	d="
M25.918879,144.292419 
	C30.018669,143.711334 29.978319,147.736481 29.566103,149.063568 
	C27.094568,157.020462 31.676828,161.716644 36.638092,166.979736 
	C35.435074,167.668640 34.223000,167.801346 32.878033,167.658875 
	C31.674389,166.538239 30.603636,165.692810 29.532883,164.847382 
	C23.526173,159.001709 22.033283,152.317627 25.918879,144.292419 
z"/>
<path fill="#2F74B6" opacity="1.000000" stroke="none" 
	d="
M29.132854,165.023438 
	C30.603636,165.692810 31.674389,166.538239 32.872475,168.054016 
	C33.014648,169.512421 33.029499,170.300491 33.082794,171.484894 
	C33.579800,176.953888 34.038357,182.026535 34.487549,187.067352 
	C34.478176,187.035522 34.543964,187.026794 34.202492,187.082230 
	C33.239880,187.430420 32.618736,187.723190 31.997589,188.015945 
	C31.011179,184.984390 29.878202,181.990524 29.085951,178.909042 
	C28.480705,176.554947 28.306753,174.089966 27.876453,171.251740 
	C28.118910,168.952606 28.425867,167.076050 29.132854,165.023438 
z"/>
<path fill="#EBC8B0" opacity="1.000000" stroke="none" 
	d="
M158.041138,171.143158 
	C158.011063,176.957260 158.085266,182.775452 157.858719,188.581879 
	C157.815903,189.679596 156.577866,190.730698 155.891357,191.803314 
	C155.288071,190.671783 154.227783,189.567230 154.159103,188.404144 
	C153.828690,182.808228 153.765869,177.196518 153.277924,171.399261 
	C153.380753,168.815582 151.190781,165.194290 156.271179,164.772934 
	C156.716782,165.235199 156.830063,165.747681 156.997696,166.877289 
	C157.052048,167.494385 157.195496,167.922104 157.152527,168.270859 
	C157.420090,169.460800 157.730606,170.301987 158.041138,171.143158 
z"/>
<path fill="#D74F96" opacity="1.000000" stroke="none" 
	d="
M173.262283,63.847733 
	C179.598816,64.770103 185.597870,65.739540 192.020752,66.783997 
	C192.559570,68.534187 192.674545,70.209358 192.108032,71.868225 
	C189.961075,71.557304 188.495636,71.262703 186.744644,70.704849 
	C183.240341,69.992516 180.021561,69.543427 176.449371,69.016411 
	C174.436020,68.656868 172.776093,68.375252 171.116180,68.093643 
	C171.719040,66.694023 172.321915,65.294411 173.262283,63.847733 
z"/>
<path fill="#A17869" opacity="1.000000" stroke="none" 
	d="
M86.759628,67.423019 
	C85.288551,67.960007 83.493484,68.781807 82.062973,68.361847 
	C80.095497,67.784233 78.403862,66.267059 76.280319,65.001785 
	C72.146019,60.633663 71.772789,53.037727 75.287437,48.275776 
	C75.701752,47.714428 76.979729,47.312744 77.604935,47.537910 
	C78.094101,47.714088 78.535797,49.039448 78.405609,49.744766 
	C77.787315,53.094616 75.314346,57.424393 76.593414,59.500618 
	C78.650177,62.839230 83.137703,64.680351 86.759628,67.423019 
z"/>
<path fill="#E24643" opacity="1.000000" stroke="none" 
	d="
M158.505646,171.114532 
	C157.730606,170.301987 157.420090,169.460800 157.329102,168.182755 
	C157.771423,167.582611 157.913040,167.366180 157.973450,167.096619 
	C165.348953,167.035034 172.724457,166.973450 180.640701,167.158600 
	C181.442871,167.309891 181.704315,167.214462 181.965744,167.119034 
	C185.001099,171.732010 181.161530,170.870346 178.330902,171.225983 
	C171.594208,171.229767 165.282196,171.157837 158.505646,171.114532 
z"/>
<path fill="#7E5F56" opacity="1.000000" stroke="none" 
	d="
M36.523445,130.244843 
	C33.049416,128.040604 29.427265,126.021393 26.234743,123.465530 
	C25.643915,122.992531 26.787224,120.353416 27.421267,118.577698 
	C28.141888,119.296425 28.571398,120.151505 29.145168,121.317291 
	C30.554340,124.302803 32.160797,125.092796 35.548325,125.472755 
	C40.348068,126.011124 43.234177,123.052040 47.034241,122.412193 
	C44.932606,125.166443 42.858753,127.564247 40.358559,129.973206 
	C38.795959,130.071182 37.659698,130.158005 36.523445,130.244843 
z"/>
<path fill="#987063" opacity="1.000000" stroke="none" 
	d="
M100.424118,65.546219 
	C96.636208,67.320648 93.617676,72.058533 88.666306,67.782562 
	C92.498154,65.257919 96.635628,63.086903 100.570755,60.596184 
	C101.198837,60.198639 101.275269,58.271469 100.991524,57.217003 
	C100.197426,54.265968 99.081047,51.401661 98.745880,47.672707 
	C99.826996,48.424282 101.419441,48.936058 101.903259,49.967743 
	C104.379730,55.248482 107.407135,60.740910 100.424118,65.546219 
z"/>
<path fill="#3E3C3D" opacity="1.000000" stroke="none" 
	d="
M171.026550,68.444839 
	C172.776093,68.375252 174.436020,68.656868 176.323517,69.317390 
	C172.480789,76.395721 172.508423,76.367645 177.905701,81.678032 
	C178.190155,81.957924 177.348877,83.381989 176.646469,84.165848 
	C174.434937,83.916809 172.608612,83.775314 170.552612,83.383255 
	C169.959549,82.092072 169.596176,81.051460 169.346313,79.639282 
	C169.388489,78.246956 169.317154,77.226212 169.245819,76.205467 
	C169.447479,75.365250 169.649139,74.525032 169.808136,73.357346 
	C170.155945,71.618591 170.546448,70.207314 171.026550,68.444839 
z"/>
<path fill="#E4E8F0" opacity="1.000000" stroke="none" 
	d="
M145.606888,201.049286 
	C145.129318,206.171738 147.975372,211.744247 143.506561,216.401154 
	C143.268494,216.649246 144.467072,218.275970 145.138901,219.572266 
	C143.790527,219.917252 142.300140,219.950867 140.365540,219.977203 
	C139.841919,214.616577 139.762497,209.263199 140.162155,203.474487 
	C142.296448,202.375870 143.951660,201.712585 145.606888,201.049286 
z"/>
<path fill="#543E39" opacity="1.000000" stroke="none" 
	d="
M29.000910,121.006577 
	C28.571398,120.151505 28.141888,119.296425 27.491104,118.235695 
	C27.223303,117.262299 27.176773,116.494553 27.435284,115.193542 
	C27.749529,114.333847 27.758734,114.007416 27.767939,113.680984 
	C29.985754,111.568497 32.203571,109.456009 34.707367,107.147095 
	C36.518597,107.103905 38.043854,107.257149 40.139431,107.588043 
	C41.823265,108.841805 42.936775,109.917915 43.640629,111.011238 
	C40.896935,111.648857 38.593529,112.446289 36.223118,112.856544 
	C29.064119,114.095566 29.053974,114.036949 29.000910,121.006577 
z"/>
<path fill="#454342" opacity="1.000000" stroke="none" 
	d="
M187.030182,70.968094 
	C188.495636,71.262703 189.961075,71.557304 191.784164,71.994736 
	C192.410919,72.892250 192.770981,73.627754 192.934967,74.404648 
	C194.400345,81.347954 193.017029,83.122932 185.243103,84.574379 
	C185.123245,84.952698 184.699997,85.005684 184.303864,84.687363 
	C183.702728,83.698051 183.497742,83.027069 183.292740,82.356087 
	C190.285721,80.446259 187.846313,75.440804 187.030182,70.968094 
z"/>
<path fill="#EBC3AF" opacity="1.000000" stroke="none" 
	d="
M205.208160,94.673622 
	C202.043106,96.072601 199.095428,97.245834 195.569916,98.698563 
	C193.290558,97.932022 191.589050,96.885994 189.887558,95.839958 
	C190.723801,95.247833 191.560059,94.655708 192.708572,94.023590 
	C196.170715,93.214363 199.415665,92.707939 202.447144,91.611412 
	C206.518478,90.138779 209.092239,91.286789 211.295090,96.193008 
	C208.747925,95.435692 207.086746,94.941788 205.208160,94.673622 
z"/>
<path fill="#4E4B4D" opacity="1.000000" stroke="none" 
	d="
M192.630859,143.427948 
	C193.340424,141.952515 194.107086,140.809998 195.187317,139.398483 
	C195.500885,139.129471 195.792847,139.176575 195.792847,139.176575 
	C197.456772,140.449402 199.120697,141.722244 201.062469,143.085037 
	C201.540863,143.951950 201.741394,144.728897 202.294998,146.873856 
	C198.576920,145.669083 195.632446,144.714996 192.630859,143.427948 
z"/>
<path fill="#52504F" opacity="1.000000" stroke="none" 
	d="
M137.568329,221.518433 
	C137.656433,221.088852 137.484848,221.099289 137.453003,221.089569 
	C138.268188,223.147934 139.115219,225.216003 140.101776,227.624786 
	C137.044174,227.624786 134.337143,227.624786 130.976410,227.624786 
	C133.421036,225.491028 135.450623,223.719528 137.568329,221.518433 
z"/>
<path fill="#4B4442" opacity="1.000000" stroke="none" 
	d="
M34.543961,187.026794 
	C34.543964,187.026794 34.478176,187.035522 34.490604,187.452423 
	C35.322544,189.590958 36.142056,191.312607 36.961571,193.034256 
	C36.965450,193.580658 36.969330,194.127060 36.961906,194.947083 
	C35.178272,194.739853 32.304752,198.112625 31.665064,193.312378 
	C31.828379,191.900146 31.980509,190.882736 32.510231,189.487000 
	C33.439865,188.414734 33.991909,187.720764 34.543961,187.026794 
z"/>
<path fill="#393838" opacity="1.000000" stroke="none" 
	d="
M209.935974,118.733994 
	C207.214767,119.473389 204.307236,119.959908 201.399719,120.446419 
	C201.111710,119.811630 200.823715,119.176834 200.535721,118.542038 
	C202.390579,117.402390 204.245453,116.262741 206.453384,115.253281 
	C207.787537,116.416023 208.768600,117.448578 209.935974,118.733994 
z"/>
<path fill="#9B7566" opacity="1.000000" stroke="none" 
	d="
M36.567467,130.538513 
	C37.659698,130.158005 38.795959,130.071182 40.345276,130.310791 
	C41.560310,131.303619 42.362278,131.970001 43.164249,132.636383 
	C40.791752,134.050766 38.654816,139.763824 35.827568,132.668350 
	C36.083096,131.809891 36.347298,131.321030 36.567467,130.538513 
z"/>
<path fill="#F0F0F3" opacity="1.000000" stroke="none" 
	d="
M211.321716,122.903625 
	C211.182678,122.342392 211.356125,121.818863 211.771149,121.146507 
	C212.322357,121.074203 212.577194,121.236633 212.873627,121.693665 
	C212.524734,122.248672 212.079453,122.594994 211.321716,122.903625 
z"/>
<path fill="#3A3A39" opacity="1.000000" stroke="none" 
	d="
M96.331612,33.803673 
	C96.500748,33.185787 96.968559,32.545452 97.762833,31.993145 
	C97.602966,32.647854 97.116631,33.214539 96.331612,33.803673 
z"/>
<path fill="#5A5ACE" opacity="1.000000" stroke="none" 
	d="
M214.715729,193.072556 
	C214.671036,193.234573 214.406464,193.284454 214.073395,193.173462 
	C214.004913,193.012573 214.495834,192.960419 214.715729,193.072556 
z"/>
<path fill="#7E5F56" opacity="1.000000" stroke="none" 
	d="
M27.591522,113.855354 
	C27.758734,114.007416 27.749529,114.333847 27.546638,114.823990 
	C27.208822,114.657677 27.229538,114.338348 27.591522,113.855354 
z"/>
<path fill="#DE2A25" opacity="1.000000" stroke="none" 
	d="
M181.732910,167.056396 
	C181.704315,167.214462 181.442871,167.309891 181.104050,167.245453 
	C181.026657,167.085571 181.500061,166.993744 181.732910,167.056396 
z"/>
<path fill="#DE2A25" opacity="1.000000" stroke="none" 
	d="
M157.734283,167.047516 
	C157.913040,167.366180 157.771423,167.582611 157.372055,167.834000 
	C157.195496,167.922104 157.052048,167.494385 157.030533,167.269836 
	C157.009018,167.045288 157.495102,166.998428 157.734283,167.047516 
z"/>
<path fill="#2F74B6" opacity="1.000000" stroke="none" 
	d="
M196.155212,138.989655 
	C195.792847,139.176575 195.500885,139.129471 195.354782,139.134903 
	C194.808090,136.425903 194.106415,133.716370 194.062012,130.996124 
	C193.915222,122.004997 194.005783,122.061226 184.748810,121.976212 
	C180.828430,121.940208 176.910812,121.604385 172.596527,120.902740 
	C172.175323,119.986427 172.149536,119.572205 172.458786,118.919312 
	C172.899292,116.768471 173.004761,114.856308 173.110229,112.944138 
	C176.095047,112.994560 179.079865,113.044983 182.509628,113.152267 
	C184.263809,114.146278 185.453186,115.440834 186.912552,115.930183 
	C188.741287,116.543365 190.791595,116.495720 193.183395,116.794327 
	C195.404053,118.635956 197.187592,120.416557 199.018570,122.548874 
	C199.044479,126.635109 199.265976,130.394348 198.889862,134.092819 
	C198.723740,135.726303 197.345520,137.236526 196.155212,138.989655 
z"/>
<path fill="#FCF9FA" opacity="1.000000" stroke="none" 
	d="
M43.515434,132.729126 
	C42.362278,131.970001 41.560310,131.303619 40.771618,130.299652 
	C42.858753,127.564247 44.932606,125.166443 47.223778,122.311195 
	C47.441090,121.853752 47.817513,121.645737 47.817513,121.645737 
	C59.277020,121.757278 70.736526,121.868828 82.677750,121.996094 
	C78.435677,126.768112 78.156868,137.829971 82.822929,143.064026 
	C83.006531,143.479263 82.900940,143.805054 82.443565,143.735657 
	C72.013123,144.115585 62.040047,144.564911 51.950417,144.731598 
	C51.756554,144.260361 51.679249,144.071762 51.601940,143.883179 
	C52.092121,138.624329 50.107903,135.786942 43.515434,132.729126 
z"/>
<path fill="#E0423F" opacity="1.000000" stroke="none" 
	d="
M134.912094,144.869873 
	C135.195892,145.619461 135.479691,146.369064 135.321365,147.437805 
	C122.058838,147.759918 109.233910,147.582657 96.421516,147.904541 
	C93.556633,147.976517 90.735733,149.799271 87.587906,150.989044 
	C86.604370,153.109604 85.927505,155.057114 85.177353,157.375793 
	C85.221680,158.487442 85.339294,159.227905 85.483017,160.291229 
	C87.351601,162.365891 89.194077,164.117691 91.333221,166.087494 
	C94.290283,168.670258 96.642982,169.556519 97.934891,164.594574 
	C97.975075,162.785507 97.945000,161.389816 98.186905,159.684525 
	C101.535889,159.299530 104.612877,159.224152 107.732040,159.574463 
	C107.860512,161.999069 107.946815,163.997971 108.019264,166.430496 
	C109.120621,167.242706 110.232071,167.934479 111.351662,167.947891 
	C117.572144,168.022522 123.794617,167.932419 130.011017,168.250153 
	C129.704117,169.444794 129.402618,170.287979 128.626801,171.107086 
	C121.571907,171.083008 114.991341,171.083008 108.187546,171.083008 
	C107.992363,174.079178 107.828972,176.587265 107.598343,180.127472 
	C104.272369,175.378891 101.286697,177.365326 98.184868,179.599899 
	C98.041931,176.525269 97.922432,173.954651 97.797157,171.259918 
	C94.927048,171.098068 92.473465,170.959686 89.793579,170.581177 
	C86.721642,167.344681 82.666344,164.818985 81.279564,161.254974 
	C78.297379,153.590744 82.788811,148.205902 89.463028,144.070740 
	C102.662071,144.026382 115.393471,144.069641 128.121841,143.893845 
	C129.778183,143.870972 131.418961,142.720108 133.066940,142.091721 
	C133.066940,142.091721 133.490601,141.981461 133.764832,142.232635 
	C134.085373,142.661285 134.131668,142.838745 134.145996,143.287445 
	C134.380051,143.995758 134.646072,144.432816 134.912094,144.869873 
z"/>
<path fill="#F6F5F9" opacity="1.000000" stroke="none" 
	d="
M167.003159,94.094467 
	C167.482880,94.448921 167.962601,94.803375 168.748169,95.922089 
	C168.608627,103.893150 168.163254,111.099945 167.798141,117.008263 
	C165.303879,119.043144 163.608490,120.426285 161.913086,121.809425 
	C156.395187,121.793449 150.877289,121.777473 145.198669,121.397751 
	C151.205902,119.121185 154.346817,114.388290 154.631409,108.483521 
	C154.909363,102.716934 152.013199,97.988899 146.592667,95.176430 
	C149.964432,94.793976 153.096329,94.749855 156.408981,95.076431 
	C156.589752,98.212883 156.589752,100.978630 156.589752,103.368652 
	C159.773209,103.368652 162.335617,103.368652 164.522476,103.368652 
	C165.317825,100.395195 166.160492,97.244835 167.003159,94.094467 
z"/>
<path fill="#A55636" opacity="1.000000" stroke="none" 
	d="
M134.015778,136.341217 
	C133.770477,133.459671 133.525177,130.578125 133.267059,127.546082 
	C137.492218,126.897621 141.654449,126.119576 145.851273,125.651985 
	C150.500031,125.134041 152.349152,127.639107 150.658737,132.922180 
	C146.769806,133.173935 143.445496,133.437805 140.206604,133.027496 
	C137.124207,132.637024 135.164474,133.520630 134.015778,136.341217 
z"/>
<path fill="#F0C5AF" opacity="1.000000" stroke="none" 
	d="
M162.219238,122.012344 
	C163.608490,120.426285 165.303879,119.043144 167.798141,117.008263 
	C168.163254,111.099945 168.608627,103.893150 169.089355,96.211533 
	C169.959686,95.957741 170.794662,96.178772 171.832336,97.120026 
	C171.720505,101.766006 171.176880,105.690971 171.163437,109.617752 
	C171.152557,112.796692 171.779663,115.977821 172.123764,119.157974 
	C172.149536,119.572205 172.175323,119.986427 172.244415,120.710083 
	C169.033615,121.418091 165.779510,121.816673 162.219238,122.012344 
z"/>
<path fill="#F7C9AC" opacity="1.000000" stroke="none" 
	d="
M134.004517,136.665771 
	C135.164474,133.520630 137.124207,132.637024 140.206604,133.027496 
	C143.445496,133.437805 146.769806,133.173935 150.516800,133.282654 
	C151.461334,134.510956 151.945847,135.661270 151.980942,137.056839 
	C151.246719,137.500229 151.053848,137.765305 150.490662,138.046906 
	C144.675751,138.096313 139.323105,138.196121 133.970444,138.295929 
	C133.978043,137.860733 133.985641,137.425537 134.004517,136.665771 
z"/>
<path fill="#F4F4FA" opacity="1.000000" stroke="none" 
	d="
M87.221100,131.284302 
	C89.396011,128.255569 91.937798,127.784714 93.848366,130.583786 
	C94.580658,131.656616 94.070007,134.579071 93.057854,135.637573 
	C90.795822,138.003235 87.834366,135.927094 87.221100,131.284302 
z"/>
<path fill="#F4F4FA" opacity="1.000000" stroke="none" 
	d="
M103.621216,136.315155 
	C99.048805,135.536514 97.256248,133.257294 99.070999,130.814026 
	C99.818802,129.807236 101.507034,129.029236 102.771423,129.023621 
	C103.793442,129.019058 105.718262,130.390961 105.673073,131.043549 
	C105.552773,132.780518 104.584984,134.458786 103.621216,136.315155 
z"/>
<path fill="#F4F4FA" opacity="1.000000" stroke="none" 
	d="
M110.793457,134.887970 
	C109.472412,132.015335 109.919533,129.688126 112.782875,129.142944 
	C114.134262,128.885635 116.363724,129.988800 117.167274,131.173065 
	C117.769241,132.060242 117.114548,135.053024 116.335304,135.357468 
	C114.822517,135.948547 112.828644,135.308319 110.793457,134.887970 
z"/>
<path fill="#C85D75" opacity="1.000000" stroke="none" 
	d="
M132.801025,142.048492 
	C131.418961,142.720108 129.778183,143.870972 128.121841,143.893845 
	C115.393471,144.069641 102.662071,144.026382 89.082382,144.044067 
	C87.467918,144.059036 86.702690,144.081085 85.739822,144.019287 
	C85.270416,143.816101 85.060585,143.627762 84.912697,143.370407 
	C99.646545,143.241623 114.380394,143.112839 129.879486,142.961365 
	C131.095276,142.631821 131.545837,142.324936 131.996399,142.018066 
	C132.175964,142.013794 132.355530,142.009521 132.801025,142.048492 
z"/>
<path fill="#15110F" opacity="1.000000" stroke="none" 
	d="
M134.058289,138.511444 
	C139.323105,138.196121 144.675751,138.096313 150.361938,138.449097 
	C150.314072,140.183121 146.593719,137.543823 148.080841,140.911224 
	C148.027008,140.739914 147.697052,140.598145 147.595917,140.170532 
	C146.679153,139.636765 145.863541,139.530609 144.879074,139.363098 
	C144.470291,139.501907 144.230377,139.702087 143.623230,139.850983 
	C142.515320,139.829987 141.774597,139.860275 140.885712,139.643555 
	C140.173080,139.387253 139.608627,139.377991 138.675964,139.271378 
	C137.123077,139.409195 135.938370,139.644379 134.598328,139.819855 
	C134.442993,139.760162 134.126572,139.656982 134.126572,139.656982 
	C134.140305,139.347137 134.146835,139.037125 134.058289,138.511444 
z"/>
<path fill="#F6CBB1" opacity="1.000000" stroke="none" 
	d="
M148.134659,141.082520 
	C146.593719,137.543823 150.314072,140.183121 150.824188,138.499512 
	C151.053848,137.765305 151.246719,137.500229 151.768295,137.229279 
	C152.045166,138.122360 152.085236,139.088242 152.164322,140.410049 
	C151.804169,141.162186 151.404999,141.558411 150.659271,142.357544 
	C149.586700,142.201141 148.860687,141.641830 148.134659,141.082520 
z"/>
<path fill="#FD5349" opacity="1.000000" stroke="none" 
	d="
M84.628670,143.316162 
	C85.060585,143.627762 85.270416,143.816101 85.540474,144.259064 
	C84.659485,144.323471 83.780212,144.064270 82.900940,143.805054 
	C82.900940,143.805054 83.006531,143.479263 83.101402,143.336288 
	C83.579063,143.216187 83.961853,143.239044 84.628670,143.316162 
z"/>
<path fill="#4854B9" opacity="1.000000" stroke="none" 
	d="
M156.833862,142.657761 
	C156.065125,142.510223 155.151733,142.077179 154.090179,141.359100 
	C154.857742,141.506805 155.773468,141.939514 156.833862,142.657761 
z"/>
<path fill="#60504D" opacity="1.000000" stroke="none" 
	d="
M134.070084,140.036972 
	C134.126572,139.656982 134.442993,139.760162 134.644135,140.234131 
	C135.134705,141.471008 135.424133,142.233917 135.329544,142.991516 
	C134.689682,142.996185 134.433838,143.006195 134.177979,143.016205 
	C134.131668,142.838745 134.085373,142.661285 133.982941,142.214203 
	C133.955734,141.435364 133.984665,140.926163 134.070084,140.036972 
z"/>
<path fill="#4854B9" opacity="1.000000" stroke="none" 
	d="
M131.713562,142.029556 
	C131.545837,142.324936 131.095276,142.631821 130.348557,142.906342 
	C130.511841,142.596359 130.971268,142.318695 131.713562,142.029556 
z"/>
<path fill="#FEFEFE" opacity="1.000000" stroke="none" 
	d="
M143.027954,117.084885 
	C141.591293,117.313950 140.154831,117.741402 138.717941,117.742805 
	C109.177826,117.771652 79.637657,117.751945 49.435448,117.497040 
	C47.872227,115.831108 46.971054,114.410027 46.533363,112.996490 
	C78.894875,113.011620 110.792915,113.019203 142.771515,113.426109 
	C142.910706,114.911919 142.969330,115.998405 143.027954,117.084885 
z"/>
<path fill="#DE3C3A" opacity="1.000000" stroke="none" 
	d="
M156.228210,94.705734 
	C153.096329,94.749855 149.964432,94.793976 146.367584,94.919312 
	C145.902603,95.000526 145.510269,94.838585 144.956085,94.563950 
	C127.597656,94.152794 110.793404,94.016273 93.989159,93.879761 
	C87.507675,89.559219 86.112061,86.116760 88.009155,78.689194 
	C89.044487,78.740715 90.055847,79.173210 91.273125,80.128723 
	C91.341568,81.766853 91.204109,82.881973 91.020844,84.374443 
	C91.763977,90.344521 95.696030,91.296471 100.422836,91.291893 
	C119.016426,91.273872 137.610077,91.316925 156.225464,91.674408 
	C156.240891,92.909599 156.234558,93.807663 156.228210,94.705734 
z"/>
<path fill="#976C5D" opacity="1.000000" stroke="none" 
	d="
M46.069881,112.988937 
	C46.971054,114.410027 47.872227,115.831108 48.978706,117.500175 
	C48.857880,118.851646 48.531738,119.955132 48.011555,121.352180 
	C47.817513,121.645737 47.441090,121.853752 47.251553,121.954750 
	C43.234177,123.052040 40.348068,126.011124 35.548325,125.472755 
	C32.160797,125.092796 30.554340,124.302803 29.145168,121.317291 
	C29.053974,114.036949 29.064119,114.095566 36.223118,112.856544 
	C38.593529,112.446289 40.896935,111.648857 43.765095,110.932785 
	C44.299217,110.837128 44.588608,110.889534 44.511436,111.167236 
	C44.979469,111.959602 45.524677,112.474274 46.069881,112.988937 
z"/>
<path fill="#FC574C" opacity="1.000000" stroke="none" 
	d="
M143.392120,117.086128 
	C142.969330,115.998405 142.910706,114.911919 142.851486,113.087143 
	C142.797882,111.890709 142.744888,111.432571 142.771942,110.583588 
	C142.800415,109.135132 142.748840,108.077515 142.697266,107.019905 
	C142.780823,104.646667 142.864349,102.273422 142.978271,99.455719 
	C147.939865,99.629257 150.241028,102.998260 150.537430,107.396523 
	C150.854156,112.096695 148.515091,115.603767 143.392120,117.086128 
z"/>
<path fill="#CA716D" opacity="1.000000" stroke="none" 
	d="
M93.947937,94.046677 
	C110.793404,94.016273 127.597656,94.152794 144.747925,94.522728 
	C128.322311,94.777359 111.550682,94.798576 94.313644,94.686127 
	C93.848228,94.552452 93.906723,94.213600 93.947937,94.046677 
z"/>
<path fill="#60504D" opacity="1.000000" stroke="none" 
	d="
M80.110481,75.403244 
	C82.243507,75.957787 84.162735,76.801430 86.278069,77.908463 
	C83.734001,79.750473 80.993835,81.329094 77.954926,83.079826 
	C76.955109,81.382576 76.003510,79.767189 74.897003,77.888847 
	C76.671387,77.109314 78.284035,76.400833 80.110481,75.403244 
z"/>
<path fill="#FEFEFE" opacity="1.000000" stroke="none" 
	d="
M142.249054,107.015228 
	C142.748840,108.077515 142.800415,109.135132 142.324387,110.589676 
	C109.394058,110.954254 76.991333,110.921898 44.588608,110.889534 
	C44.588608,110.889534 44.299217,110.837128 44.174751,110.915573 
	C42.936775,109.917915 41.823265,108.841805 40.506203,107.471680 
	C74.135391,107.121964 107.968124,107.066261 142.249054,107.015228 
z"/>
<path fill="#6EB4B5" opacity="1.000000" stroke="none" 
	d="
M90.019882,170.821320 
	C92.473465,170.959686 94.927048,171.098068 97.797157,171.259918 
	C97.922432,173.954651 98.041931,176.525269 98.184868,179.599899 
	C101.286697,177.365326 104.272369,175.378891 107.598343,180.127472 
	C107.828972,176.587265 107.992363,174.079178 108.187546,171.083008 
	C114.991341,171.083008 121.571907,171.083008 128.632629,171.566254 
	C129.113495,177.373032 128.978638,182.702362 129.206055,188.016174 
	C129.266205,189.421936 130.442413,190.779938 131.106171,192.159866 
	C131.716141,191.957047 132.326126,191.754227 132.936096,191.551392 
	C132.936096,186.281891 132.814667,181.007812 133.012268,175.745728 
	C133.069382,174.225037 134.043045,172.738770 134.596527,171.236710 
	C134.812027,177.074066 135.027542,182.911423 135.565765,189.066025 
	C135.903000,190.321198 135.917511,191.259125 135.902420,192.546967 
	C117.893219,192.921509 99.913605,192.946167 81.465363,192.991364 
	C75.693085,193.030075 70.389435,193.048218 64.637520,193.030762 
	C61.723564,192.937271 59.257866,192.879379 56.028084,192.541962 
	C52.336319,192.083389 49.408638,191.904312 46.527378,191.728088 
	C46.326374,189.932465 46.167236,188.510880 46.302280,186.837372 
	C48.105145,181.025833 49.613827,175.466232 51.533119,169.969406 
	C53.373650,170.309860 54.802490,170.821503 56.233665,170.828125 
	C67.495483,170.880295 78.757751,170.835938 90.019882,170.821320 
z"/>
<path fill="#F3F3F3" opacity="1.000000" stroke="none" 
	d="
M85.250641,157.004608 
	C85.927505,155.057114 86.604370,153.109604 87.869835,151.315338 
	C90.240578,151.645935 92.022232,151.971252 93.804932,151.977036 
	C107.180000,152.020447 120.555504,151.963760 133.930191,152.046875 
	C135.640182,152.057510 137.346298,152.693756 139.054199,153.040176 
	C139.054199,153.040176 139.052048,153.408386 139.068207,153.591599 
	C137.361511,154.811478 135.638641,155.848145 133.119034,156.963135 
	C116.631737,157.029175 100.941193,157.016891 85.250641,157.004608 
z"/>
<path fill="#F4F4F4" opacity="1.000000" stroke="none" 
	d="
M108.033112,165.996872 
	C107.946815,163.997971 107.860512,161.999069 108.220650,159.531189 
	C116.179276,159.403915 123.691467,159.745621 131.203659,160.087341 
	C130.903549,161.431824 130.603424,162.776321 129.941650,164.515396 
	C122.397705,165.272293 115.215408,165.634583 108.033112,165.996872 
z"/>
<path fill="#FCF9F9" opacity="1.000000" stroke="none" 
	d="
M131.455978,159.909302 
	C123.691467,159.745621 116.179276,159.403915 108.178482,159.105484 
	C104.612877,159.224152 101.535889,159.299530 97.733475,159.688049 
	C93.157669,159.990265 89.307289,159.979324 85.456909,159.968384 
	C85.339294,159.227905 85.221680,158.487442 85.177353,157.375793 
	C100.941193,157.016891 116.631737,157.029175 132.809845,157.071442 
	C132.767715,157.978043 132.238007,158.854660 131.455978,159.909302 
z"/>
<path fill="#EEC8AF" opacity="1.000000" stroke="none" 
	d="
M134.534973,170.814926 
	C134.043045,172.738770 133.069382,174.225037 133.012268,175.745728 
	C132.814667,181.007812 132.936096,186.281891 132.936096,191.551392 
	C132.326126,191.754227 131.716141,191.957047 131.106171,192.159866 
	C130.442413,190.779938 129.266205,189.421936 129.206055,188.016174 
	C128.978638,182.702362 129.113495,177.373032 129.106949,171.590332 
	C129.402618,170.287979 129.704117,169.444794 130.101852,167.952179 
	C130.463379,166.533005 130.728668,165.763275 130.993958,164.993561 
	C135.131485,164.874603 134.387863,167.901031 134.534973,170.814926 
z"/>
<path fill="#F9EAE9" opacity="1.000000" stroke="none" 
	d="
M130.896057,164.881302 
	C130.728668,165.763275 130.463379,166.533005 130.107239,167.600708 
	C123.794617,167.932419 117.572144,168.022522 111.351662,167.947891 
	C110.232071,167.934479 109.120621,167.242706 108.019257,166.430496 
	C115.215408,165.634583 122.397705,165.272293 130.040726,164.853058 
	C130.501450,164.796127 130.798141,164.769043 130.896057,164.881302 
z"/>
<path fill="#9D6C5C" opacity="1.000000" stroke="none" 
	d="
M51.198589,143.902802 
	C51.679249,144.071762 51.756554,144.260361 52.051704,145.100616 
	C54.563118,152.072739 55.432751,158.147736 49.475754,163.173309 
	C49.076191,163.510406 49.118961,164.371796 48.632000,165.026611 
	C47.188305,165.992401 46.068604,166.920914 44.662384,167.983627 
	C43.211082,167.779724 42.046303,167.441605 40.881531,167.103500 
	C41.490971,166.338684 41.978088,165.415695 42.729572,164.834549 
	C47.881275,160.850494 49.636925,155.646942 49.038551,149.253113 
	C48.878784,147.545959 50.170109,145.703018 51.198589,143.902802 
z"/>
<path fill="#2C679E" opacity="1.000000" stroke="none" 
	d="
M40.490601,167.078094 
	C42.046303,167.441605 43.211082,167.779724 44.677338,168.394058 
	C44.956417,169.489929 44.934017,170.309570 44.458099,171.093506 
	C40.351166,171.068069 36.697758,171.078308 33.044346,171.088562 
	C33.029499,170.300491 33.014648,169.512421 33.005363,168.329208 
	C34.223000,167.801346 35.435074,167.668640 36.796505,167.270096 
	C37.997131,167.020416 39.048401,167.036560 40.490601,167.078094 
z"/>
<path fill="#F2F2F5" opacity="1.000000" stroke="none" 
	d="
M135.587341,203.030716 
	C135.674316,205.099762 135.761292,207.168808 135.317230,209.625122 
	C115.748848,210.041885 96.711517,210.071411 77.674187,210.100922 
	C77.313873,207.932709 76.953568,205.764481 77.258453,203.300720 
	C97.144875,203.013687 116.366112,203.022202 135.587341,203.030716 
z"/>
<path fill="#FFFFFF" opacity="1.000000" stroke="none" 
	d="
M135.660065,202.604660 
	C116.366112,203.022202 97.144875,203.013687 77.453659,203.003342 
	C78.456589,198.238876 82.017403,196.843399 86.601509,196.857666 
	C102.578697,196.907364 118.556099,196.889404 135.038879,196.937561 
	C135.607162,198.711517 135.669983,200.445053 135.660065,202.604660 
z"/>
<path fill="#FEFEFE" opacity="1.000000" stroke="none" 
	d="
M77.800552,210.442673 
	C96.711517,210.071411 115.748848,210.041885 135.232925,210.016602 
	C135.646652,211.463715 135.613632,212.906586 135.449066,214.685425 
	C119.355904,214.990219 103.388145,215.181229 87.437813,214.741119 
	C84.233566,214.652679 81.095505,212.165558 77.800552,210.442673 
z"/>
<path fill="#FBF6F7" opacity="1.000000" stroke="none" 
	d="
M156.203705,91.337296 
	C137.610077,91.316925 119.016426,91.273872 100.422836,91.291893 
	C95.696030,91.296471 91.763977,90.344521 91.468002,84.374008 
	C93.762527,83.363670 95.564095,82.731140 97.667984,82.294914 
	C101.227592,81.191292 101.928856,78.982742 100.297363,75.944939 
	C100.644836,75.730034 100.992310,75.515137 101.541321,75.239990 
	C103.426758,75.530746 105.109657,76.181526 106.794701,76.187111 
	C127.281425,76.255020 147.768463,76.227997 168.750626,76.215546 
	C169.317154,77.226212 169.388489,78.246956 168.861176,79.638268 
	C147.991501,80.007240 127.720451,80.004379 107.449409,80.005608 
	C104.853943,80.005768 102.073898,79.716499 101.333267,83.996948 
	C106.107208,83.996948 110.544746,84.019638 114.981987,83.992989 
	C133.582138,83.881317 152.182190,83.754860 170.782288,83.633820 
	C172.608612,83.775314 174.434937,83.916809 176.595581,84.272842 
	C176.929916,84.487381 177.019547,84.706009 177.019547,84.706009 
	C173.597717,87.019753 170.175888,89.333496 166.216339,91.289688 
	C165.438416,89.359695 165.198196,87.787254 164.957169,86.209579 
	C162.130173,86.209579 159.586960,86.209579 157.129761,86.209579 
	C156.782013,88.135132 156.492859,89.736214 156.203705,91.337296 
M103.578644,87.001534 
	C100.794754,87.001534 98.010872,87.001534 95.226982,87.001534 
	C95.243423,87.244156 95.259872,87.486786 95.276314,87.729408 
	C114.823273,87.729408 134.370239,87.729408 153.917191,87.729408 
	C153.917938,87.486786 153.918671,87.244164 153.919418,87.001541 
	C137.464676,87.001541 121.009949,87.001541 103.578644,87.001534 
z"/>
<path fill="#EABFA8" opacity="1.000000" stroke="none" 
	d="
M177.316772,84.925110 
	C177.019547,84.706009 176.929916,84.487381 176.980804,84.380386 
	C177.348877,83.381989 178.190155,81.957924 177.905701,81.678032 
	C172.508423,76.367645 172.480789,76.395721 176.676941,69.395317 
	C180.021561,69.543427 183.240341,69.992516 186.744644,70.704849 
	C187.846313,75.440804 190.285721,80.446259 183.292740,82.356087 
	C183.497742,83.027069 183.702728,83.698051 184.090607,84.690796 
	C181.859970,89.329308 180.657104,89.353088 177.316772,84.925110 
z"/>
<path fill="#5A55B3" opacity="1.000000" stroke="none" 
	d="
M156.225464,91.674408 
	C156.492859,89.736214 156.782013,88.135132 157.129761,86.209579 
	C159.586960,86.209579 162.130173,86.209579 164.957169,86.209579 
	C165.198196,87.787254 165.438416,89.359695 165.829315,91.356705 
	C166.295181,92.453186 166.610352,93.125107 166.964340,93.945740 
	C166.160492,97.244835 165.317825,100.395195 164.522476,103.368652 
	C162.335617,103.368652 159.773209,103.368652 156.589752,103.368652 
	C156.589752,100.978630 156.589752,98.212883 156.408997,95.076431 
	C156.234558,93.807663 156.240891,92.909599 156.225464,91.674408 
z"/>
<path fill="#F2F2F5" opacity="1.000000" stroke="none" 
	d="
M189.544647,96.104919 
	C191.589050,96.885994 193.290558,97.932022 195.333038,98.975525 
	C193.631363,103.208717 191.588715,107.444435 189.251846,111.875412 
	C189.039001,106.837082 189.120377,101.603485 189.544647,96.104919 
z"/>
<path fill="#EEE8E7" opacity="1.000000" stroke="none" 
	d="
M172.458786,118.919312 
	C171.779663,115.977821 171.152557,112.796692 171.163437,109.617752 
	C171.176880,105.690971 171.720505,101.766006 172.034882,97.373398 
	C172.365921,101.944992 172.697098,106.983452 173.069244,112.483025 
	C173.004761,114.856308 172.899292,116.768471 172.458786,118.919312 
z"/>
<path fill="#6EAFB5" opacity="1.000000" stroke="none" 
	d="
M33.082794,171.484894 
	C36.697758,171.078308 40.351166,171.068069 44.307259,171.443176 
	C43.901657,175.548706 43.323509,179.299881 42.446041,182.979691 
	C41.672123,186.225235 43.332783,187.012177 46.008102,187.089279 
	C46.167236,188.510880 46.326374,189.932465 46.527378,191.728088 
	C49.408638,191.904312 52.336319,192.083389 55.573460,192.493698 
	C52.883404,193.472794 49.883892,194.220627 46.498726,195.002563 
	C43.349728,194.366959 40.586384,193.697250 37.392303,193.030884 
	C36.142056,191.312607 35.322544,189.590958 34.499977,187.484253 
	C34.038357,182.026535 33.579800,176.953888 33.082794,171.484894 
z"/>
<path fill="#FFFFFF" opacity="1.000000" stroke="none" 
	d="
M145.702728,200.665680 
	C143.951660,201.712585 142.296448,202.375870 140.254272,203.043625 
	C139.814987,202.225082 139.481110,201.285614 139.764191,200.601349 
	C140.549622,198.702744 141.591827,196.910370 142.532578,195.076019 
	C143.621246,196.811371 144.709900,198.546722 145.702728,200.665680 
z"/>
<path fill="#4B4442" opacity="1.000000" stroke="none" 
	d="
M99.875381,75.942749 
	C101.928856,78.982742 101.227592,81.191292 97.515717,82.026878 
	C95.667648,80.549744 94.274155,79.536949 92.880669,78.524162 
	C95.071579,77.662964 97.262497,76.801765 99.875381,75.942749 
z"/>
<path fill="#F0F0F3" opacity="1.000000" stroke="none" 
	d="
M92.625580,78.735809 
	C94.274155,79.536949 95.667648,80.549744 97.213402,81.830566 
	C95.564095,82.731140 93.762527,83.363670 91.513794,83.996643 
	C91.204109,82.881973 91.341568,81.766853 91.499535,80.307915 
	C91.803520,79.625206 92.086998,79.286331 92.625580,78.735809 
z"/>
<path fill="#AF8E7D" opacity="1.000000" stroke="none" 
	d="
M148.080841,140.911224 
	C148.860687,141.641830 149.586700,142.201141 150.603607,142.633286 
	C150.949570,142.732269 151.004639,142.958435 151.150314,143.521835 
	C149.210510,143.858063 147.180069,143.857071 145.050934,143.447418 
	C144.952225,143.038773 145.167450,142.823685 145.526794,142.794189 
	C146.489777,142.042496 147.093414,141.320312 147.697052,140.598145 
	C147.697052,140.598145 148.027008,140.739914 148.080841,140.911224 
z"/>
<path fill="#6EAFB5" opacity="1.000000" stroke="none" 
	d="
M34.202492,187.082230 
	C33.991909,187.720764 33.439865,188.414734 32.535538,189.176376 
	C32.142448,189.040817 32.101631,188.837570 32.029205,188.325134 
	C32.618736,187.723190 33.239880,187.430420 34.202492,187.082230 
z"/>
<path fill="#FEFDFD" opacity="1.000000" stroke="none" 
	d="
M139.392059,153.016937 
	C137.346298,152.693756 135.640182,152.057510 133.930191,152.046875 
	C120.555504,151.963760 107.180000,152.020447 93.804932,151.977036 
	C92.022232,151.971252 90.240578,151.645935 88.176514,151.142273 
	C90.735733,149.799271 93.556633,147.976517 96.421516,147.904541 
	C109.233910,147.582657 122.058838,147.759918 135.333206,147.743896 
	C137.423431,148.767654 139.096542,149.755920 140.634338,150.922562 
	C140.775406,151.029572 140.051926,152.276230 139.392059,153.016937 
z"/>
<path fill="#AF8E7D" opacity="1.000000" stroke="none" 
	d="
M134.145996,143.287445 
	C134.433838,143.006195 134.689682,142.996185 135.651611,143.002518 
	C137.014008,142.967056 137.670303,142.915268 138.498184,142.709763 
	C139.065353,142.320984 139.460953,142.085938 140.018768,142.072556 
	C140.450531,142.196274 140.720093,142.098343 141.309296,142.182205 
	C141.799194,142.540375 141.969452,142.716766 142.139725,142.893143 
	C140.029572,143.566788 137.919418,144.240417 135.360687,144.891968 
	C134.646072,144.432816 134.380051,143.995758 134.145996,143.287445 
z"/>
<path fill="#F0C5AF" opacity="1.000000" stroke="none" 
	d="
M141.033890,139.890564 
	C141.774597,139.860275 142.515320,139.829987 143.582458,140.131683 
	C143.863922,140.647354 143.818970,140.831039 143.774002,141.014709 
	C143.338226,141.578293 142.902435,142.141891 142.303192,142.799316 
	C141.969452,142.716766 141.799194,142.540375 141.303741,141.936340 
	C140.997009,140.969315 141.015457,140.429932 141.033890,139.890564 
z"/>
<path fill="#AF8E7D" opacity="1.000000" stroke="none" 
	d="
M143.826202,141.324188 
	C143.818970,140.831039 143.863922,140.647354 143.949661,140.182983 
	C144.230377,139.702087 144.470291,139.501907 144.874100,139.790436 
	C145.081131,141.127319 145.124298,141.975494 145.167450,142.823685 
	C145.167450,142.823685 144.952225,143.038773 144.841766,143.146576 
	C144.447006,142.714142 144.162704,142.173904 143.826202,141.324188 
z"/>
<path fill="#F3F3F3" opacity="1.000000" stroke="none" 
	d="
M170.552612,83.383247 
	C152.182190,83.754860 133.582138,83.881317 114.981987,83.992989 
	C110.544746,84.019638 106.107208,83.996948 101.333267,83.996948 
	C102.073898,79.716499 104.853943,80.005768 107.449409,80.005608 
	C127.720451,80.004379 147.991501,80.007240 168.747681,80.009842 
	C169.596176,81.051460 169.959549,82.092072 170.552612,83.383247 
z"/>
<path fill="#FE594E" opacity="1.000000" stroke="none" 
	d="
M48.956001,164.989334 
	C49.118961,164.371796 49.076191,163.510406 49.475754,163.173309 
	C55.432751,158.147736 54.563118,152.072739 52.168262,145.383255 
	C62.040047,144.564911 72.013123,144.115585 82.443565,143.735657 
	C83.780212,144.064270 84.659485,144.323471 85.738113,144.342896 
	C86.702690,144.081085 87.467918,144.059036 88.613785,144.063660 
	C82.788811,148.205902 78.297379,153.590744 81.279564,161.254974 
	C82.666344,164.818985 86.721642,167.344681 89.793579,170.581177 
	C78.757751,170.835938 67.495483,170.880295 56.233665,170.828125 
	C54.802490,170.821503 53.373650,170.309860 51.490730,169.621262 
	C50.343822,167.803329 49.649910,166.396332 48.956001,164.989334 
z"/>
<path fill="#F5EFEE" opacity="1.000000" stroke="none" 
	d="
M85.483017,160.291229 
	C89.307289,159.979324 93.157669,159.990265 97.461487,159.997665 
	C97.945000,161.389816 97.975075,162.785507 97.530609,164.589127 
	C95.049561,165.287872 93.043060,165.578674 91.036552,165.869492 
	C89.194077,164.117691 87.351601,162.365891 85.483017,160.291229 
z"/>
<path fill="#FCF9F9" opacity="1.000000" stroke="none" 
	d="
M91.333221,166.087494 
	C93.043060,165.578674 95.049561,165.287872 97.460342,165.002502 
	C96.642982,169.556519 94.290283,168.670258 91.333221,166.087494 
z"/>
<path fill="#DAB39C" opacity="1.000000" stroke="none" 
	d="
M138.326599,142.863464 
	C137.670303,142.915268 137.014008,142.967056 136.035645,143.007843 
	C135.424133,142.233917 135.134705,141.471008 134.799469,140.293823 
	C135.938370,139.644379 137.123077,139.409195 138.691833,139.516510 
	C139.051453,140.185562 139.033707,140.512497 138.716034,140.947830 
	C138.381805,141.658386 138.354202,142.260925 138.326599,142.863464 
z"/>
<path fill="#EABFA8" opacity="1.000000" stroke="none" 
	d="
M145.526810,142.794189 
	C145.124298,141.975494 145.081131,141.127319 145.042953,139.851807 
	C145.863541,139.530609 146.679153,139.636765 147.595917,140.170532 
	C147.093414,141.320312 146.489777,142.042496 145.526810,142.794189 
z"/>
<path fill="#F6CBB1" opacity="1.000000" stroke="none" 
	d="
M139.022629,140.839813 
	C139.033707,140.512497 139.051453,140.185562 139.060028,139.613861 
	C139.608627,139.377991 140.173080,139.387253 140.885712,139.643555 
	C141.015457,140.429932 140.997009,140.969315 140.984100,141.754547 
	C140.720093,142.098343 140.450531,142.196274 139.973740,141.844284 
	C139.547531,141.170624 139.299576,140.985779 139.022629,140.839813 
z"/>
<path fill="#F3F3F3" opacity="1.000000" stroke="none" 
	d="
M44.511436,111.167236 
	C76.991333,110.921898 109.394058,110.954254 142.244354,110.980515 
	C142.744888,111.432571 142.797882,111.890709 142.770905,112.687820 
	C110.792915,113.019203 78.894875,113.011620 46.533363,112.996490 
	C45.524677,112.474274 44.979469,111.959602 44.511436,111.167236 
z"/>
<path fill="#2F73B5" opacity="1.000000" stroke="none" 
	d="
M48.632004,165.026611 
	C49.649910,166.396332 50.343822,167.803329 51.080120,169.558472 
	C49.613827,175.466232 48.105145,181.025833 46.302280,186.837372 
	C43.332783,187.012177 41.672123,186.225235 42.446041,182.979691 
	C43.323509,179.299881 43.901657,175.548706 44.760780,171.478882 
	C44.934017,170.309570 44.956417,169.489929 44.963863,168.259857 
	C46.068604,166.920914 47.188305,165.992401 48.632004,165.026611 
z"/>
<path fill="#F4F4F4" opacity="1.000000" stroke="none" 
	d="
M104.066933,87.001541 
	C121.009949,87.001541 137.464676,87.001541 153.919418,87.001541 
	C153.918671,87.244164 153.917938,87.486786 153.917191,87.729408 
	C134.370239,87.729408 114.823273,87.729408 95.276314,87.729408 
	C95.259872,87.486786 95.243423,87.244156 95.226982,87.001534 
	C98.010872,87.001534 100.794754,87.001534 104.066933,87.001541 
z"/>
<path fill="#15110F" opacity="1.000000" stroke="none" 
	d="
M138.716034,140.947830 
	C139.299576,140.985779 139.547531,141.170624 139.811523,141.622620 
	C139.460953,142.085938 139.065353,142.320984 138.498169,142.709747 
	C138.354202,142.260925 138.381805,141.658386 138.716034,140.947830 
z"/>
</svg>