<svg version="1.1" id="Layer_1" xmlns="http://www.w3.org/2000/svg" xmlns:xlink="http://www.w3.org/1999/xlink" x="0px" y="0px"
	 width="100%" viewBox="0 0 221 228" enable-background="new 0 0 221 228" xml:space="preserve">
<path fill="#FEFEFE" opacity="1.000000" stroke="none" 
	d="
M1.000000,79.000000 
	C1.000000,53.104794 1.000000,27.209587 1.000000,1.000000 
	C11.018703,1.000000 21.040693,1.000000 31.354292,1.319187 
	C21.967501,3.975405 16.367376,12.134661 17.765516,21.861780 
	C19.006523,30.495695 26.375355,36.700191 34.839638,36.627064 
	C36.427967,40.877930 38.238163,40.444088 40.595486,37.463509 
	C41.754154,35.998501 43.531971,35.023167 45.359459,33.783646 
	C51.896591,29.160000 54.153412,22.894892 52.890030,15.490814 
	C51.555099,7.667460 45.792561,3.762356 39.000000,1.000000 
	C99.913246,1.000000 160.826492,1.000000 222.000000,1.000000 
	C222.000000,42.353863 222.000000,83.708275 221.718719,125.320648 
	C219.682526,121.894348 216.438705,121.635796 212.872986,121.689896 
	C212.578064,121.234726 212.324219,121.073235 211.973907,120.684273 
	C211.329041,119.909531 210.726074,119.447998 209.936890,118.733353 
	C208.769424,117.447083 207.788177,116.413918 206.877151,115.007042 
	C206.729477,113.456070 206.511566,112.278809 206.266373,110.630363 
	C205.823364,105.072289 205.407623,99.985405 205.209366,94.672951 
	C207.088211,94.942085 208.749588,95.436775 211.146622,96.150528 
	C208.102432,90.670692 207.056854,90.288055 202.464386,91.645287 
	C199.357956,92.563339 196.172195,93.213005 193.199890,93.695824 
	C193.310623,87.970184 189.420700,86.262817 185.243835,84.574615 
	C193.019119,83.126633 194.401764,81.352493 192.936310,74.404442 
	C192.772446,73.627464 192.412521,72.891830 192.467697,72.011063 
	C192.676483,70.209381 192.561066,68.533653 192.342926,66.459282 
	C191.541183,62.850586 190.908081,59.624367 190.125381,56.434856 
	C189.274368,52.966999 185.574570,51.437511 182.998901,53.795025 
	C179.633011,56.875835 176.711472,60.442127 173.261169,63.846359 
	C172.320847,65.292984 171.718140,66.692802 171.013351,68.489456 
	C170.476868,73.524551 170.042450,78.162811 169.588043,83.014656 
	C172.260345,83.469231 174.173874,83.794731 176.096420,84.305283 
	C176.105438,84.490341 176.084000,84.860268 175.765244,85.003624 
	C173.895340,86.331169 172.038437,87.274467 170.868729,88.759178 
	C169.330292,90.711914 166.278915,92.604095 169.077515,96.235947 
	C168.590012,103.907906 168.144485,111.107887 167.779114,117.012474 
	C165.283920,119.032860 163.587357,120.406586 161.470779,121.819023 
	C160.422958,121.977135 159.799820,122.158363 159.166626,122.206070 
	C154.406906,122.564621 149.488663,124.758766 145.416595,120.987015 
	C153.248718,116.636253 156.156494,110.834343 154.073914,104.361565 
	C151.966248,97.810890 148.117477,95.015999 141.149261,94.987961 
	C117.374756,94.892319 93.600227,94.799271 69.891968,94.308594 
	C70.491257,90.976463 68.513840,91.172218 66.609032,91.178421 
	C60.453419,91.198463 54.281460,91.431541 48.151459,91.033440 
	C46.205975,90.907104 44.372173,89.061035 43.000069,88.008652 
	C51.904484,88.015381 60.296085,88.015381 68.687691,88.015381 
	C65.193291,87.000305 61.711365,86.880920 58.240753,87.028168 
	C52.976189,87.251526 47.719482,87.660133 42.146606,88.174339 
	C41.262726,86.907845 40.691677,85.457054 40.533810,84.003876 
	C42.973541,83.642174 45.000092,83.282875 47.268120,82.961281 
	C47.812012,82.876045 48.121460,82.774551 48.856037,82.881790 
	C55.511158,83.362625 61.746853,83.710190 67.987328,83.863884 
	C68.593224,83.878815 69.228638,82.695282 69.850357,82.068069 
	C68.942261,81.382439 68.026161,80.096436 67.127357,80.108414 
	C61.198555,80.187386 55.273476,80.545624 49.487915,80.435234 
	C49.836796,78.599945 50.044949,77.142265 50.734474,75.885910 
	C56.633579,76.141899 62.052319,76.262947 67.468002,76.181297 
	C68.301727,76.168732 69.121399,75.223877 69.947571,74.710175 
	C69.153999,74.157860 68.387238,73.178223 67.562279,73.126480 
	C63.798035,72.890404 60.017448,72.914886 56.423668,72.543762 
	C59.254581,67.475922 58.261086,65.519814 53.171230,65.557617 
	C51.874950,65.567245 50.579845,65.735336 49.426186,65.545746 
	C56.412518,60.739567 53.376587,55.245647 50.904427,49.964787 
	C50.421391,48.932953 48.826401,48.421665 47.744282,47.670288 
	C48.078949,51.399776 49.195309,54.264374 49.989441,57.215675 
	C50.273235,58.270374 50.197216,60.197857 49.569153,60.595425 
	C45.633537,63.086727 41.495529,65.258286 37.059155,67.672363 
	C36.436718,67.769920 36.179623,67.730766 35.761894,67.422882 
	C23.981480,60.513912 23.984688,60.514957 27.810368,48.788700 
	C27.889532,48.546047 27.636173,48.194916 27.357941,47.343689 
	C26.460201,47.488777 25.096092,47.289436 24.560902,47.863235 
	C20.827328,51.866138 21.121836,60.689308 24.569027,64.895454 
	C22.455824,65.862320 20.738218,66.784065 19.020613,67.705803 
	C19.993782,69.446907 20.966955,71.188004 21.482964,72.992287 
	C13.868130,73.411873 6.038990,71.506241 1.000000,79.000000 
z"/>
<path fill="#FDFEFE" opacity="1.000000" stroke="none" 
	d="
M222.000000,139.000000 
	C222.000000,168.962677 222.000000,198.925369 222.000000,228.943756 
	C148.333328,228.943756 74.666664,228.943756 1.000000,228.943756 
	C1.000000,215.570770 1.000000,202.254044 1.265746,188.692169 
	C4.755164,193.223495 8.612183,194.180191 15.810773,192.030487 
	C15.810773,185.108902 15.810773,178.217056 15.810773,171.388519 
	C6.223339,170.291016 4.871423,170.634369 1.000000,175.000000 
	C1.000000,146.645767 1.000000,118.291542 1.340586,89.540680 
	C4.261581,92.943779 7.815778,94.224106 12.392218,94.080376 
	C19.865782,93.845665 27.355228,94.116699 34.831093,94.609451 
	C34.466557,99.434082 37.774429,98.178490 39.947876,98.182411 
	C72.040848,98.240349 104.133965,98.210609 136.226990,98.251625 
	C138.166931,98.254105 140.106354,98.676529 141.950500,99.308517 
	C140.038635,100.143745 138.223160,100.944763 136.405762,100.949150 
	C104.766426,101.025574 73.126846,101.004272 41.487316,101.004272 
	C39.537338,101.004272 37.587357,101.004272 34.993595,101.004272 
	C34.993595,103.385193 34.993595,105.168228 34.707726,107.147858 
	C32.204105,109.456886 29.986357,111.569313 27.592402,113.856140 
	C27.230671,114.338928 27.209812,114.658081 27.242382,115.357529 
	C27.177595,116.494644 27.224045,117.262253 27.200802,118.371948 
	C26.787823,120.352684 25.644760,122.991890 26.234482,123.463264 
	C29.426134,126.014397 33.046585,128.029068 36.571129,130.525558 
	C36.355850,131.317932 36.088696,131.813354 35.479698,132.312592 
	C33.230709,133.266739 30.977011,133.850555 29.495617,135.251205 
	C27.126276,137.491409 24.033752,139.799377 25.919685,144.291779 
	C22.033659,152.317398 23.530268,159.001221 29.133125,165.024490 
	C28.426386,167.077118 28.119509,168.953568 27.388714,170.875061 
	C25.945051,171.644882 24.068655,172.337860 24.040392,173.099442 
	C23.803396,179.485336 23.905560,185.883789 23.905560,192.916626 
	C26.824890,192.916626 29.250851,192.916626 31.665785,193.311462 
	C32.306519,198.112015 35.178722,194.739563 36.921982,195.647552 
	C35.529285,196.467117 34.151096,196.812027 32.805611,197.256042 
	C27.908773,198.871979 28.042316,203.082535 28.058264,207.009995 
	C28.073450,210.750458 29.929937,212.526764 34.005356,212.086212 
	C37.607067,211.696854 41.281502,211.980255 45.389549,211.978790 
	C49.287395,211.971970 52.719521,211.952972 56.609303,211.954346 
	C62.366951,211.932510 67.666946,211.890289 73.367996,211.914581 
	C75.068710,211.348175 76.368355,210.715256 78.156906,210.057953 
	C97.658806,210.027451 116.671799,210.021332 135.773636,210.386719 
	C137.689011,212.999985 139.042236,212.723557 140.341278,209.995667 
	C142.102814,210.000778 143.457260,210.003128 144.897034,210.386749 
	C146.974823,212.640854 148.735855,213.011993 150.445465,209.998596 
	C172.474777,209.998688 194.033875,209.998688 215.371658,209.998688 
	C216.920593,204.555649 215.198807,202.896057 210.420593,202.933640 
	C190.285629,203.091980 170.148666,202.995407 149.936676,202.568115 
	C149.915054,200.421402 149.969177,198.698685 150.489517,196.941833 
	C156.266998,196.902237 161.578278,196.892929 166.889542,196.892151 
	C181.827576,196.889969 196.765594,196.898712 211.703629,196.883774 
	C214.133575,196.881332 217.288467,197.412491 214.715500,193.073669 
	C214.495728,192.961685 214.005173,193.013504 213.542542,192.928589 
	C206.987183,192.829605 200.892807,192.898392 194.802200,192.777359 
	C189.094131,192.663940 183.390030,192.349594 178.046753,192.008698 
	C183.648346,186.744308 183.398865,176.569183 178.329193,171.225616 
	C181.157516,170.868515 185.001358,171.735031 181.732819,167.056824 
	C181.500031,166.994263 181.026733,167.085922 180.563370,166.999176 
	C172.724457,166.973923 165.348923,167.035446 157.734253,167.047974 
	C157.495117,166.998978 157.009155,167.045868 156.976166,166.653107 
	C156.829819,165.747559 156.716461,165.234772 156.638809,164.726074 
	C156.674530,164.730164 156.725708,164.780685 157.210480,164.847565 
	C165.138107,164.939377 172.583130,165.055664 180.021286,164.880676 
	C181.019608,164.857178 182.641708,163.465149 182.786560,162.523941 
	C182.946365,161.485703 181.726135,159.225830 181.123886,159.231705 
	C172.748550,159.313110 164.376083,159.692261 155.772903,159.854126 
	C155.318054,159.224579 155.093246,158.739655 155.143143,157.917908 
	C163.020126,157.387253 170.624100,157.240555 178.223495,156.966553 
	C180.137573,156.897552 183.234894,157.943329 182.734253,154.379196 
	C182.597244,153.403824 179.945801,152.147964 178.419067,152.106964 
	C170.118515,151.884018 161.808044,151.942184 153.503021,152.053955 
	C151.970490,152.074570 150.447266,152.785080 148.574310,153.115112 
	C147.910782,152.171265 147.085587,150.769165 147.363190,150.498627 
	C148.510132,149.380829 149.991119,148.605820 151.793610,147.747330 
	C162.338181,147.789810 172.438538,147.789810 182.772675,147.789810 
	C182.849075,146.075897 182.907059,144.774887 183.436447,143.441925 
	C186.796448,143.304550 189.685028,143.199142 192.630981,143.426620 
	C195.632446,144.713821 198.576553,145.668121 202.293045,146.872757 
	C201.740570,144.727966 201.540390,143.950882 201.843933,143.257111 
	C206.007660,143.352219 209.678314,143.194107 213.324799,143.422241 
	C217.190796,143.664139 220.143600,142.508606 222.000000,139.000000 
z"/>
<path fill="#3A3A39" opacity="1.000000" stroke="none" 
	d="
M38.562500,1.000000 
	C45.792561,3.762356 51.555099,7.667460 52.890030,15.490814 
	C54.153412,22.894892 51.896591,29.160000 45.374001,33.428581 
	C46.327164,30.276911 48.110554,27.549574 48.756737,24.575180 
	C50.093056,18.424067 46.324310,15.580189 40.042789,15.610425 
	C34.661793,15.636324 32.631374,18.744267 31.070696,21.657532 
	C29.272091,21.657532 27.921534,21.284191 27.145498,21.790842 
	C26.641346,22.119989 26.520569,24.093061 27.009624,24.707718 
	C29.395102,27.705849 32.119614,30.432892 34.538136,33.407127 
	C35.050823,34.037609 34.786087,35.300262 34.879543,36.271648 
	C26.375355,36.700191 19.006523,30.495695 17.765516,21.861780 
	C16.367376,12.134661 21.967501,3.975405 31.822948,1.319187 
	C34.041668,1.000000 36.083332,1.000000 38.562500,1.000000 
z"/>
<path fill="#FE5A4F" opacity="1.000000" stroke="none" 
	d="
M34.837975,94.174377 
	C27.355228,94.116699 19.865782,93.845665 12.392218,94.080376 
	C7.815778,94.224106 4.261581,92.943779 1.340586,89.072021 
	C1.000000,85.969406 1.000000,82.938812 1.000000,79.454109 
	C6.038990,71.506241 13.868130,73.411873 21.860500,73.064888 
	C24.904497,73.754128 27.113791,74.433937 29.109562,75.403061 
	C27.282669,76.400871 25.669296,77.109367 23.895075,77.888496 
	C25.002062,79.766937 25.954325,81.382820 26.954311,83.079689 
	C29.994146,81.328873 32.734997,79.750267 35.854759,78.143059 
	C36.481495,78.166985 36.729321,78.219513 36.966637,78.656326 
	C35.127434,86.184059 36.508995,89.570763 42.569412,93.955521 
	C39.693913,94.066940 37.265945,94.120659 34.837975,94.174377 
z"/>
<path fill="#5555B5" opacity="1.000000" stroke="none" 
	d="
M222.000000,138.536819 
	C220.143600,142.508606 217.190796,143.664139 213.324799,143.422241 
	C209.678314,143.194107 206.007660,143.352219 201.565979,143.167572 
	C199.120590,141.721909 197.456863,140.449112 196.155579,138.989502 
	C197.345825,137.236572 198.723816,135.726425 198.889877,134.093048 
	C199.265915,130.394470 199.044449,126.635155 199.520996,122.944534 
	C203.654007,122.947296 207.331985,122.906052 211.322601,122.902290 
	C212.079727,122.592461 212.524170,122.245155 212.968613,121.897842 
	C216.438705,121.635796 219.682526,121.894348 221.718719,125.789307 
	C222.000000,130.024551 222.000000,134.049088 222.000000,138.536819 
z"/>
<path fill="#6FB6B6" opacity="1.000000" stroke="none" 
	d="
M1.000000,175.463181 
	C4.871423,170.634369 6.223339,170.291016 15.810773,171.388519 
	C15.810773,178.217056 15.810773,185.108902 15.810773,192.030487 
	C8.612183,194.180191 4.755164,193.223495 1.265746,188.223511 
	C1.000000,183.975449 1.000000,179.950912 1.000000,175.463181 
z"/>
<path fill="#5555B5" opacity="1.000000" stroke="none" 
	d="
M192.573624,143.093719 
	C189.685028,143.199142 186.796448,143.304550 182.991989,143.314911 
	C173.710281,143.127670 165.344421,143.035477 156.834076,142.657654 
	C155.773666,141.939316 154.857758,141.506592 153.649506,141.038864 
	C152.972610,140.924759 152.588074,140.845673 152.164368,140.410583 
	C152.085190,139.088394 152.045181,138.122192 152.218018,136.983734 
	C151.946152,135.661011 151.461472,134.510544 151.118668,132.999603 
	C152.349457,127.639854 150.498871,125.133308 145.851166,125.651688 
	C141.654343,126.119789 137.492065,126.897369 133.266357,127.545860 
	C133.524689,130.577499 133.770248,133.459030 134.004547,136.665222 
	C133.985748,137.425232 133.978180,137.860565 134.058304,138.511581 
	C134.146545,139.037537 134.140121,139.347672 134.070190,140.037537 
	C133.984818,140.926468 133.955963,141.435547 133.708923,141.963043 
	C133.490707,141.981461 133.066833,142.091721 132.800934,142.048462 
	C132.355499,142.009445 132.175964,142.013718 131.713470,142.029388 
	C130.971100,142.318573 130.511688,142.596359 129.583191,142.929153 
	C114.388611,143.108902 99.663116,143.233643 84.644409,143.302277 
	C83.955826,143.223221 83.560448,143.200302 82.892471,142.902313 
	C78.160576,137.817978 78.450142,126.753098 83.617874,122.029732 
	C102.309700,122.021935 120.543198,122.026215 138.776154,121.929436 
	C140.875488,121.918289 142.971832,121.344002 145.069565,121.030815 
	C149.488663,124.758766 154.406906,122.564621 159.166626,122.206070 
	C159.799820,122.158363 160.422958,121.977135 161.775421,122.028061 
	C165.757584,121.824478 169.015060,121.450569 172.631866,121.246017 
	C176.911392,121.611404 180.830368,121.941284 184.751999,121.976685 
	C194.005768,122.060219 193.915237,122.004990 194.061951,130.996597 
	C194.106339,133.716644 194.807739,136.425980 195.040833,139.403793 
	C194.106873,140.809494 193.340256,141.951599 192.573624,143.093719 
M110.113708,131.649658 
	C111.032829,133.204361 111.675537,135.104767 112.994514,136.159409 
	C113.600761,136.644135 116.314491,135.814468 116.686539,134.970123 
	C117.288574,133.603790 117.401161,131.176346 116.558311,130.187439 
	C114.544693,127.824844 112.169731,128.446472 110.113708,131.649658 
M106.060837,133.189499 
	C104.856110,131.746933 103.871643,129.903824 102.337555,129.060165 
	C101.729256,128.725632 98.994408,130.482254 98.849243,131.514771 
	C98.651978,132.917786 99.919098,135.755295 100.720116,135.815277 
	C102.407066,135.941620 104.199371,134.661209 106.060837,133.189499 
M94.844948,132.440109 
	C93.186028,131.281082 91.631676,129.836838 89.794731,129.163361 
	C89.334991,128.994812 87.101189,131.410309 87.227058,132.451508 
	C87.396759,133.855347 89.245590,136.259811 90.046494,136.134949 
	C91.751228,135.869217 93.244873,134.249252 94.844948,132.440109 
z"/>
<path fill="#71B6B7" opacity="1.000000" stroke="none" 
	d="
M145.416595,120.987015 
	C142.971832,121.344002 140.875488,121.918289 138.776154,121.929436 
	C120.543198,122.026215 102.309700,122.021935 83.136154,122.014069 
	C70.736618,121.868858 59.277294,121.757294 48.012016,121.352219 
	C48.531971,119.955170 48.857880,118.851639 49.640545,117.745148 
	C79.637711,117.752281 109.178123,117.772018 138.718491,117.743149 
	C140.155197,117.741745 141.591461,117.313797 143.392120,117.085854 
	C148.515671,115.604103 150.854523,112.096359 150.537964,107.396492 
	C150.241730,102.998299 147.940186,99.628960 142.770630,98.960945 
	C142.532578,98.910660 142.046021,98.903549 142.046021,98.903549 
	C140.106354,98.676529 138.166931,98.254105 136.226990,98.251625 
	C104.133965,98.210609 72.040848,98.240349 39.947876,98.182411 
	C37.774429,98.178490 34.466557,99.434082 34.831093,94.609459 
	C37.265945,94.120659 39.693913,94.066940 43.031361,94.016586 
	C52.569130,94.248375 61.197422,94.476799 69.825714,94.705223 
	C93.600227,94.799271 117.374756,94.892319 141.149261,94.987961 
	C148.117477,95.015999 151.966248,97.810890 154.073914,104.361565 
	C156.156494,110.834343 153.248718,116.636253 145.416595,120.987015 
z"/>
<path fill="#393939" opacity="1.000000" stroke="none" 
	d="
M169.119507,95.763985 
	C166.278915,92.604095 169.330292,90.711914 170.868729,88.759178 
	C172.038437,87.274467 173.895340,86.331169 176.121918,85.066895 
	C180.990143,89.339088 181.890884,89.342644 184.488022,85.011734 
	C184.701035,85.007103 185.123703,84.952820 185.123703,84.952820 
	C189.420700,86.262817 193.310623,87.970184 192.887054,93.735367 
	C191.558090,94.654228 190.719925,95.246658 189.539368,96.104568 
	C189.117615,101.605057 189.038254,106.840065 188.712708,112.374725 
	C186.629517,112.852615 184.792526,113.030869 182.510498,113.152397 
	C179.080933,113.046242 176.096390,112.996819 173.070587,112.485916 
	C172.698410,106.984695 172.367477,101.944946 171.833725,96.651543 
	C170.793777,96.186577 169.956635,95.975281 169.119507,95.763985 
z"/>
<path fill="#986C5C" opacity="1.000000" stroke="none" 
	d="
M34.839638,36.627064 
	C34.786087,35.300262 35.050823,34.037609 34.538136,33.407127 
	C32.119614,30.432892 29.395102,27.705849 27.009624,24.707718 
	C26.520569,24.093061 26.641346,22.119989 27.145498,21.790842 
	C27.921534,21.284191 29.272091,21.657532 31.070696,21.657532 
	C32.631374,18.744267 34.661793,15.636324 40.042789,15.610425 
	C46.324310,15.580189 50.093056,18.424067 48.756737,24.575180 
	C48.110554,27.549574 46.327164,30.276911 45.044132,33.471172 
	C43.531971,35.023167 41.754154,35.998501 40.595486,37.463509 
	C38.238163,40.444088 36.427967,40.877930 34.839638,36.627064 
z"/>
<path fill="#3073B5" opacity="1.000000" stroke="none" 
	d="
M36.977142,78.272049 
	C36.729321,78.219513 36.481495,78.166985 35.658127,77.879883 
	C33.162750,76.801453 31.242918,75.957596 29.323086,75.113739 
	C27.113791,74.433937 24.904497,73.754128 22.317665,73.001709 
	C20.966955,71.188004 19.993782,69.446907 19.020613,67.705803 
	C20.738218,66.784065 22.455824,65.862320 24.882879,65.046143 
	C27.402683,66.266563 29.094841,67.784073 31.062878,68.361771 
	C32.493881,68.781830 34.289486,67.959839 35.922531,67.691620 
	C36.179623,67.730766 36.436718,67.769920 37.298393,67.919792 
	C42.617073,72.058693 45.636669,67.320320 49.284203,65.830620 
	C50.579845,65.735336 51.874950,65.567245 53.171230,65.557617 
	C58.261086,65.519814 59.254581,67.475922 56.038811,72.705994 
	C53.715824,74.026093 51.958630,74.881989 49.917610,75.816711 
	C47.013569,76.666206 43.360325,74.391121 41.632164,78.732903 
	C41.108837,79.273552 40.834152,79.606369 40.331955,79.752998 
	C39.062012,79.135223 38.019577,78.703636 36.977142,78.272049 
z"/>
<path fill="#EABFA8" opacity="1.000000" stroke="none" 
	d="
M184.275009,85.016365 
	C181.890884,89.342644 180.990143,89.339088 176.440674,84.923538 
	C176.084000,84.860268 176.105438,84.490341 176.465195,84.239243 
	C177.259933,83.227203 178.226166,81.960999 178.052765,81.778694 
	C172.714294,76.165756 172.697052,76.182159 177.225906,69.061844 
	C180.776474,69.672760 183.904587,70.317940 187.056000,71.368530 
	C187.966049,75.788841 190.140610,80.183815 183.934448,82.120728 
	C183.763397,82.174118 184.148987,84.011093 184.275009,85.016365 
z"/>
<path fill="#1F5F92" opacity="1.000000" stroke="none" 
	d="
M182.955536,113.209129 
	C184.792526,113.030869 186.629517,112.852615 189.006866,112.179108 
	C191.590576,107.445778 193.633942,103.207695 195.913971,98.692810 
	C199.097717,97.243515 202.044800,96.071007 204.991882,94.898514 
	C205.407623,99.985405 205.823364,105.072289 205.873978,110.708984 
	C202.378281,113.200439 202.161011,110.919838 202.090683,108.787971 
	C201.985626,105.602684 202.063431,102.411369 202.063431,99.222626 
	C201.506088,99.139435 200.948761,99.056252 200.391418,98.973061 
	C198.134354,104.933838 195.877304,110.894608 193.183060,116.794563 
	C190.791245,116.496010 188.740982,116.543457 186.912292,115.930153 
	C185.453293,115.440834 184.264359,114.146263 182.955536,113.209129 
z"/>
<path fill="#E5E9EF" opacity="1.000000" stroke="none" 
	d="
M193.620239,116.855377 
	C195.877304,110.894608 198.134354,104.933838 200.391418,98.973061 
	C200.948761,99.056252 201.506088,99.139435 202.063431,99.222626 
	C202.063431,102.411369 201.985626,105.602684 202.090683,108.787971 
	C202.161011,110.919838 202.378281,113.200439 205.901260,111.180161 
	C206.511566,112.278809 206.729477,113.456070 206.523743,114.877869 
	C204.245361,116.262421 202.390656,117.402435 200.535950,118.542458 
	C200.824036,119.177177 201.112122,119.811897 201.400208,120.446617 
	C204.307846,119.959900 207.215469,119.473183 210.123108,118.986465 
	C210.726074,119.447998 211.329041,119.909531 211.731522,120.832336 
	C211.357346,121.817345 211.183640,122.341080 211.009949,122.864815 
	C207.331985,122.906052 203.654007,122.947296 199.473572,122.592827 
	C197.187500,120.416542 195.403870,118.635956 193.620239,116.855377 
z"/>
<path fill="#EE549E" opacity="1.000000" stroke="none" 
	d="
M173.598770,63.799553 
	C176.711472,60.442127 179.633011,56.875835 182.998901,53.795025 
	C185.574570,51.437511 189.274368,52.966999 190.125381,56.434856 
	C190.908081,59.624367 191.541183,62.850586 191.918945,66.384872 
	C185.598038,65.739265 179.598404,64.769409 173.598770,63.799553 
z"/>
<path fill="#DF4D4B" opacity="1.000000" stroke="none" 
	d="
M36.966637,78.656326 
	C38.019577,78.703636 39.062012,79.135223 40.326454,80.100769 
	C40.405849,81.758568 40.263241,82.882423 40.120636,84.006271 
	C40.691677,85.457054 41.262726,86.907845 42.175346,88.146301 
	C42.516926,87.933968 42.487263,88.001930 42.487263,88.001930 
	C44.372173,89.061035 46.205975,90.907104 48.151459,91.033440 
	C54.281460,91.431541 60.453419,91.198463 66.609032,91.178421 
	C68.513840,91.172218 70.491257,90.976463 69.891968,94.308594 
	C61.197422,94.476799 52.569130,94.248375 43.478889,93.958885 
	C36.508995,89.570763 35.127434,86.184059 36.966637,78.656326 
z"/>
<path fill="#A17869" opacity="1.000000" stroke="none" 
	d="
M35.761894,67.422890 
	C34.289486,67.959839 32.493881,68.781830 31.062878,68.361771 
	C29.094841,67.784073 27.402683,66.266563 25.278481,65.001022 
	C21.121836,60.689308 20.827328,51.866138 24.560902,47.863235 
	C25.096092,47.289436 26.460201,47.488777 27.357941,47.343689 
	C27.636173,48.194916 27.889532,48.546047 27.810368,48.788700 
	C23.984688,60.514957 23.981480,60.513912 35.761894,67.422890 
z"/>
<path fill="#D74F96" opacity="1.000000" stroke="none" 
	d="
M173.261169,63.846359 
	C179.598404,64.769409 185.598038,65.739265 192.021667,66.783524 
	C192.561066,68.533653 192.676483,70.209381 192.109634,71.868546 
	C189.962479,71.555702 188.497589,71.259407 187.032684,70.963120 
	C183.904587,70.317940 180.776474,69.672760 176.873718,68.982201 
	C174.437851,68.655426 172.776642,68.374023 171.115417,68.092628 
	C171.718140,66.692802 172.320847,65.292984 173.261169,63.846359 
z"/>
<path fill="#F0C5AF" opacity="1.000000" stroke="none" 
	d="
M169.077515,96.235947 
	C169.956635,95.975281 170.793777,96.186577 171.833191,97.118484 
	C171.720703,101.765091 171.176620,105.690315 171.163193,109.617348 
	C171.152359,112.796165 171.780167,115.977165 172.125793,119.478256 
	C172.175446,120.225090 172.223984,120.650871 172.272537,121.076660 
	C169.015060,121.450569 165.757584,121.824478 162.195465,121.989342 
	C163.587357,120.406586 165.283920,119.032860 167.779114,117.012474 
	C168.144485,111.107887 168.590012,103.907906 169.077515,96.235947 
z"/>
<path fill="#987063" opacity="1.000000" stroke="none" 
	d="
M49.426186,65.545746 
	C45.636669,67.320320 42.617073,72.058693 37.663742,67.783081 
	C41.495529,65.258286 45.633537,63.086727 49.569153,60.595425 
	C50.197216,60.197857 50.273235,58.270374 49.989441,57.215675 
	C49.195309,54.264374 48.078949,51.399776 47.744282,47.670288 
	C48.826401,48.421665 50.421391,48.932953 50.904427,49.964787 
	C53.376587,55.245647 56.412518,60.739567 49.426186,65.545746 
z"/>
<path fill="#3E3C3D" opacity="1.000000" stroke="none" 
	d="
M171.013351,68.489456 
	C172.776642,68.374023 174.437851,68.655426 176.451263,69.016464 
	C172.697052,76.182159 172.714294,76.165756 178.052765,81.778694 
	C178.226166,81.960999 177.259933,83.227203 176.456177,84.054184 
	C174.173874,83.794731 172.260345,83.469231 169.588043,83.014656 
	C170.042450,78.162811 170.476868,73.524551 171.013351,68.489456 
z"/>
<path fill="#F5F5F5" opacity="1.000000" stroke="none" 
	d="
M49.347183,80.812851 
	C55.273476,80.545624 61.198555,80.187386 67.127357,80.108414 
	C68.026161,80.096436 68.942261,81.382439 69.850357,82.068069 
	C69.228638,82.695282 68.593224,83.878815 67.987328,83.863884 
	C61.746853,83.710190 55.511158,83.362625 48.927227,82.628036 
	C48.835945,81.728935 49.091564,81.270897 49.347183,80.812851 
z"/>
<path fill="#454342" opacity="1.000000" stroke="none" 
	d="
M187.056000,71.368530 
	C188.497589,71.259407 189.962479,71.555702 191.785446,71.994507 
	C192.412521,72.891830 192.772446,73.627464 192.936310,74.404442 
	C194.401764,81.352493 193.019119,83.126633 185.243835,84.574615 
	C185.123703,84.952820 184.701035,85.007103 184.488022,85.011734 
	C184.148987,84.011093 183.763397,82.174118 183.934448,82.120728 
	C190.140610,80.183815 187.966049,75.788841 187.056000,71.368530 
z"/>
<path fill="#EBC3AF" opacity="1.000000" stroke="none" 
	d="
M205.209381,94.672943 
	C202.044800,96.071007 199.097717,97.243515 195.572754,98.695251 
	C193.290512,97.929359 191.586151,96.884224 189.881775,95.839096 
	C190.719925,95.246658 191.558090,94.654228 192.709091,94.022247 
	C196.172195,93.213005 199.357956,92.563339 202.464386,91.645287 
	C207.056854,90.288055 208.102432,90.670692 211.146622,96.150528 
	C208.749588,95.436775 207.088211,94.942085 205.209381,94.672943 
z"/>
<path fill="#E13F3C" opacity="1.000000" stroke="none" 
	d="
M50.201431,75.737892 
	C51.958630,74.881989 53.715824,74.026093 55.857880,73.007957 
	C60.017448,72.914886 63.798035,72.890404 67.562279,73.126480 
	C68.387238,73.178223 69.153999,74.157860 69.947571,74.710175 
	C69.121399,75.223877 68.301727,76.168732 67.468002,76.181297 
	C62.052319,76.262947 56.633579,76.141899 50.749641,75.917557 
	C50.283436,75.747902 50.201431,75.737892 50.201431,75.737892 
z"/>
<path fill="#4B4442" opacity="1.000000" stroke="none" 
	d="
M49.917610,75.816711 
	C50.201431,75.737892 50.283436,75.747902 50.268269,75.716248 
	C50.044949,77.142265 49.836796,78.599945 49.487915,80.435234 
	C49.091564,81.270897 48.835945,81.728935 48.509136,82.440742 
	C48.121460,82.774551 47.812012,82.876045 47.152214,82.644882 
	C45.156826,81.035553 43.518818,79.780319 41.880810,78.525078 
	C43.360325,74.391121 47.013569,76.666206 49.917610,75.816711 
z"/>
<path fill="#393838" opacity="1.000000" stroke="none" 
	d="
M209.936890,118.733353 
	C207.215469,119.473183 204.307846,119.959900 201.400208,120.446617 
	C201.112122,119.811897 200.824036,119.177177 200.535950,118.542458 
	C202.390656,117.402435 204.245361,116.262421 206.453491,115.251572 
	C207.788177,116.413918 208.769424,117.447083 209.936890,118.733353 
z"/>
<path fill="#F1F1F3" opacity="1.000000" stroke="none" 
	d="
M41.632164,78.732903 
	C43.518818,79.780319 45.156826,81.035553 46.910740,82.607178 
	C45.000092,83.282875 42.973541,83.642174 40.533813,84.003876 
	C40.263241,82.882423 40.405849,81.758568 40.553963,80.286957 
	C40.834152,79.606369 41.108837,79.273552 41.632164,78.732903 
z"/>
<path fill="#F3F3F3" opacity="1.000000" stroke="none" 
	d="
M42.488182,87.962006 
	C47.719482,87.660133 52.976189,87.251526 58.240753,87.028168 
	C61.711365,86.880920 65.193291,87.000305 68.687691,88.015381 
	C60.296085,88.015381 51.904484,88.015381 43.000069,88.008652 
	C42.487263,88.001930 42.516926,87.933968 42.488182,87.962006 
z"/>
<path fill="#F1F1F3" opacity="1.000000" stroke="none" 
	d="
M211.322601,122.902290 
	C211.183640,122.341080 211.357346,121.817345 211.773438,121.145546 
	C212.324219,121.073235 212.578064,121.234726 212.872986,121.689903 
	C212.524170,122.245155 212.079727,122.592461 211.322601,122.902290 
z"/>
<path fill="#EEF1F1" opacity="1.000000" stroke="none" 
	d="
M141.950500,99.308517 
	C142.046021,98.903549 142.532578,98.910660 142.740265,99.405411 
	C142.864441,102.273361 142.780960,104.646576 142.249252,107.015114 
	C107.968399,107.066109 74.135757,107.121773 39.936325,107.293839 
	C38.044220,107.257248 36.518909,107.104263 34.993595,106.951271 
	C34.993595,105.168228 34.993595,103.385193 34.993595,101.004272 
	C37.587357,101.004272 39.537338,101.004272 41.487316,101.004272 
	C73.126846,101.004272 104.766426,101.025574 136.405762,100.949150 
	C138.223160,100.944763 140.038635,100.143745 141.950500,99.308517 
z"/>
<path fill="#393838" opacity="1.000000" stroke="none" 
	d="
M154.868439,158.254715 
	C155.093246,158.739655 155.318054,159.224579 155.804031,160.208069 
	C156.285355,162.064636 156.505539,163.422668 156.725708,164.780685 
	C156.725708,164.780685 156.674530,164.730164 156.302444,164.778473 
	C151.176895,165.196762 153.369370,168.813080 152.637238,171.460770 
	C152.197006,177.472000 152.067596,183.230255 151.477142,189.005707 
	C145.972992,189.139587 140.929916,189.256241 135.563141,189.057327 
	C135.025055,182.906525 134.810654,177.071304 134.535095,170.814270 
	C134.390213,167.899124 135.129547,164.875275 130.895874,164.881317 
	C130.797760,164.769058 130.500885,164.796860 130.401672,164.459137 
	C130.602371,162.776459 130.902283,161.431519 131.454758,159.908844 
	C132.237167,158.854416 132.766983,157.977692 133.606125,156.992950 
	C135.638275,155.848251 137.361130,154.811569 139.432007,153.909271 
	C142.075424,157.306320 144.399002,159.490158 147.181259,154.434097 
	C147.389786,154.055115 148.300568,154.062576 149.178375,154.063156 
	C151.270721,155.575516 153.069580,156.915115 154.868439,158.254715 
z"/>
<path fill="#393838" opacity="1.000000" stroke="none" 
	d="
M26.055170,143.924301 
	C24.033752,139.799377 27.126276,137.491409 29.495617,135.251205 
	C30.977011,133.850555 33.230709,133.266739 35.485558,132.682571 
	C38.652676,139.771652 40.793369,134.083237 43.518719,132.736115 
	C50.108078,135.787491 52.092457,138.625900 51.198612,143.902740 
	C50.170193,145.702911 48.878811,147.545853 49.038803,149.252762 
	C49.638157,155.647079 47.880993,160.850037 42.729733,164.834305 
	C41.978298,165.415527 41.491173,166.338486 40.490807,167.077927 
	C39.048573,167.036453 37.997276,167.020370 36.787724,166.713806 
	C31.677315,161.716370 27.093828,157.020645 29.566444,149.063202 
	C29.978878,147.735886 30.017969,143.711792 26.055170,143.924301 
z"/>
<path fill="#6FB3B4" opacity="1.000000" stroke="none" 
	d="
M151.938202,188.988495 
	C152.067596,183.230255 152.197006,177.472000 152.967529,171.651779 
	C153.766174,177.196304 153.828720,182.808411 154.158875,188.404739 
	C154.227478,189.567856 155.287781,190.672455 155.891037,191.804031 
	C156.577698,190.731644 157.815964,189.680771 157.858780,188.583267 
	C158.085281,182.776337 158.011078,176.957687 158.505646,171.114441 
	C165.281586,171.157700 171.592987,171.229614 177.904404,171.301529 
	C183.398865,176.569183 183.648346,186.744308 177.718048,192.201111 
	C168.065048,192.632294 159.103348,192.756088 150.238312,192.592804 
	C150.869385,191.199982 151.403793,190.094238 151.938202,188.988495 
z"/>
<path fill="#F5F5F5" opacity="1.000000" stroke="none" 
	d="
M150.012436,202.992111 
	C170.148666,202.995407 190.285629,203.091980 210.420593,202.933640 
	C215.198807,202.896057 216.920593,204.555649 215.371658,209.998688 
	C194.033875,209.998688 172.474777,209.998688 150.380997,209.564087 
	C149.901688,207.083710 149.957062,205.037903 150.012436,202.992111 
z"/>
<path fill="#F3F4F4" opacity="1.000000" stroke="none" 
	d="
M135.684784,210.015228 
	C116.671799,210.021332 97.658806,210.027451 77.896072,209.838348 
	C77.094757,207.428757 77.043182,205.214371 77.460945,203.001831 
	C97.155518,203.006577 116.380753,203.009491 135.712601,203.379272 
	C135.774399,205.835846 135.729584,207.925537 135.684784,210.015228 
z"/>
<path fill="#5454B5" opacity="1.000000" stroke="none" 
	d="
M72.966934,211.848068 
	C67.666946,211.890289 62.366951,211.932510 56.499748,211.562515 
	C53.291428,202.754745 55.523861,197.844727 64.635574,193.031250 
	C70.389297,193.048859 75.694572,193.030380 80.797119,193.284409 
	C72.852158,196.954117 70.514191,202.560730 72.966934,211.848068 
z"/>
<path fill="#6D6CD3" opacity="1.000000" stroke="none" 
	d="
M73.367996,211.914581 
	C70.514191,202.560730 72.852158,196.954117 81.265404,193.264008 
	C99.914665,192.948837 117.892906,192.926559 135.900940,193.250275 
	C135.802460,194.724106 135.674194,195.851913 135.041061,196.940613 
	C118.560516,196.893845 102.584778,196.912033 86.609253,196.862198 
	C82.027451,196.847916 78.462204,198.233170 76.991608,202.999985 
	C77.043182,205.214371 77.094757,207.428757 77.407166,209.862747 
	C76.368355,210.715256 75.068710,211.348175 73.367996,211.914581 
z"/>
<path fill="#5958B6" opacity="1.000000" stroke="none" 
	d="
M44.923824,211.966614 
	C41.281502,211.980255 37.607067,211.696854 34.005356,212.086212 
	C29.929937,212.526764 28.073450,210.750458 28.058264,207.009995 
	C28.042316,203.082535 27.908773,198.871979 32.805611,197.256042 
	C34.151096,196.812027 35.529285,196.467117 36.932568,195.374344 
	C36.968616,194.126434 36.964561,193.580887 37.391365,193.032104 
	C40.585846,193.698044 43.349472,194.367218 46.084694,195.449707 
	C45.678802,201.230881 45.301311,206.598755 44.923824,211.966614 
z"/>
<path fill="#7170D4" opacity="1.000000" stroke="none" 
	d="
M150.141632,192.879883 
	C159.103348,192.756088 168.065048,192.632294 177.355469,192.316101 
	C183.390030,192.349594 189.094131,192.663940 194.802200,192.777359 
	C200.892807,192.898392 206.987183,192.829605 213.610809,193.089630 
	C214.406235,193.285583 214.670761,193.235611 214.935272,193.185638 
	C217.288467,197.412491 214.133575,196.881332 211.703629,196.883774 
	C196.765594,196.898712 181.827576,196.889969 166.889542,196.892151 
	C161.578278,196.892929 156.266998,196.902237 150.476349,196.534256 
	C150.045181,195.067184 150.093414,193.973526 150.141632,192.879883 
z"/>
<path fill="#3877B8" opacity="1.000000" stroke="none" 
	d="
M150.238312,192.592804 
	C150.093414,193.973526 150.045181,195.067184 150.010132,196.568420 
	C149.969177,198.698685 149.915054,200.421402 149.936676,202.568115 
	C149.957062,205.037903 149.901688,207.083710 149.910797,209.564011 
	C148.735855,213.011993 146.974823,212.640854 144.959961,209.925293 
	C144.955475,205.768906 145.214478,202.430603 144.879578,199.152985 
	C144.733505,197.723587 143.369949,196.418610 142.559311,195.057129 
	C141.604584,196.397095 139.958969,197.674332 139.830460,199.089325 
	C139.503403,202.691025 139.854507,206.354279 139.934189,209.992905 
	C139.042236,212.723557 137.689011,212.999985 135.773636,210.386719 
	C135.729584,207.925537 135.774399,205.835846 135.783051,202.955536 
	C135.679901,200.436508 135.612915,198.708130 135.545944,196.979736 
	C135.674194,195.851913 135.802460,194.724106 135.932999,192.898544 
	C135.919128,191.258163 135.902969,190.315536 135.886826,189.372894 
	C140.929916,189.256241 145.972992,189.139587 151.477142,189.005707 
	C151.403793,190.094238 150.869385,191.199982 150.238312,192.592804 
z"/>
<path fill="#F1F1F3" opacity="1.000000" stroke="none" 
	d="
M45.389549,211.978790 
	C45.301311,206.598755 45.678802,201.230881 46.470459,195.416473 
	C49.884361,194.222061 52.884094,193.474182 56.338310,192.774811 
	C59.257572,192.880585 61.722355,192.937851 64.187134,192.995132 
	C55.523861,197.844727 53.291428,202.754745 56.042091,211.542130 
	C52.719521,211.952972 49.287395,211.971970 45.389549,211.978790 
z"/>
<path fill="#DE5354" opacity="1.000000" stroke="none" 
	d="
M156.978577,142.943298 
	C165.344421,143.035477 173.710281,143.127670 182.520584,143.346863 
	C182.907059,144.774887 182.849075,146.075897 182.772675,147.789810 
	C172.438538,147.789810 162.338181,147.789810 151.903351,147.466782 
	C151.458267,146.047729 151.347641,144.951691 151.145905,143.520233 
	C150.998611,142.960022 150.942429,142.735229 150.944260,142.234344 
	C151.402679,141.561020 151.803101,141.163803 152.203522,140.766586 
	C152.588074,140.845673 152.972610,140.924759 153.797668,141.323975 
	C155.151657,142.077148 156.065125,142.510223 156.978577,142.943298 
z"/>
<path fill="#F3F3F3" opacity="1.000000" stroke="none" 
	d="
M155.143143,157.917908 
	C153.069580,156.915115 151.270721,155.575516 149.192734,153.885315 
	C148.913605,153.534698 148.919739,153.177170 148.919739,153.177170 
	C150.447266,152.785080 151.970490,152.074570 153.503021,152.053955 
	C161.808044,151.942184 170.118515,151.884018 178.419067,152.106964 
	C179.945801,152.147964 182.597244,153.403824 182.734253,154.379196 
	C183.234894,157.943329 180.137573,156.897552 178.223495,156.966553 
	C170.624100,157.240555 163.020126,157.387253 155.143143,157.917908 
z"/>
<path fill="#F5F5F5" opacity="1.000000" stroke="none" 
	d="
M157.210480,164.847565 
	C156.505539,163.422668 156.285355,162.064636 156.034058,160.352676 
	C164.376083,159.692261 172.748550,159.313110 181.123886,159.231705 
	C181.726135,159.225830 182.946365,161.485703 182.786560,162.523941 
	C182.641708,163.465149 181.019608,164.857178 180.021286,164.880676 
	C172.583130,165.055664 165.138107,164.939377 157.210480,164.847565 
z"/>
<path fill="#F6CBB1" opacity="1.000000" stroke="none" 
	d="
M148.574310,153.115112 
	C148.919739,153.177170 148.913605,153.534698 148.899261,153.712555 
	C148.300568,154.062576 147.389786,154.055115 147.181259,154.434097 
	C144.399002,159.490158 142.075424,157.306320 139.415894,153.726044 
	C139.051773,153.408417 139.054016,153.040115 139.392029,153.016937 
	C140.052353,152.276505 140.776093,151.030014 140.635376,150.923279 
	C139.097092,149.756561 137.423782,148.767929 135.775528,147.425964 
	C135.479294,146.375290 135.194702,145.629517 135.326202,144.900497 
	C136.878860,143.580978 142.253601,147.937943 139.812073,141.625458 
	C139.548752,141.171219 139.300247,140.985703 139.033447,140.594452 
	C139.087524,140.022675 139.090149,139.695847 139.389984,139.305359 
	C140.820755,139.520447 141.914093,139.798889 143.089020,140.262787 
	C143.322876,140.679703 143.524902,140.853287 143.821686,141.285065 
	C144.154221,142.152603 144.441711,142.704086 144.938980,143.556274 
	C147.178177,143.856522 149.207611,143.856094 151.237030,143.855667 
	C151.347641,144.951691 151.458267,146.047729 151.459137,147.424301 
	C149.991119,148.605820 148.510132,149.380829 147.363190,150.498627 
	C147.085587,150.769165 147.910782,152.171265 148.574310,153.115112 
z"/>
<path fill="#71B5B6" opacity="1.000000" stroke="none" 
	d="
M31.676811,192.916626 
	C29.250851,192.916626 26.824890,192.916626 23.905560,192.916626 
	C23.905560,185.883789 23.803396,179.485336 24.040392,173.099442 
	C24.068655,172.337860 25.945051,171.644882 27.453041,171.297623 
	C28.306940,174.090820 28.480637,176.555862 29.085865,178.909958 
	C29.878040,181.991135 31.011147,184.984650 32.029110,188.325104 
	C32.101410,188.837555 32.142197,189.040802 32.157696,189.554611 
	C31.980545,190.882324 31.828678,191.899475 31.676811,192.916626 
z"/>
<path fill="#9B7060" opacity="1.000000" stroke="none" 
	d="
M25.919685,144.291779 
	C30.017969,143.711792 29.978878,147.735886 29.566444,149.063202 
	C27.093828,157.020645 31.677315,161.716370 36.638504,166.979767 
	C35.435341,167.668869 34.223137,167.801529 32.878136,167.658936 
	C31.674551,166.538574 30.603767,165.693451 29.532986,164.848328 
	C23.530268,159.001221 22.033659,152.317398 25.919685,144.291779 
z"/>
<path fill="#2F74B6" opacity="1.000000" stroke="none" 
	d="
M29.133123,165.024490 
	C30.603767,165.693451 31.674551,166.538574 32.872559,168.054047 
	C33.014595,169.512390 33.029408,170.300385 33.082565,171.484741 
	C33.579712,176.953934 34.038513,182.026779 34.487656,187.067902 
	C34.478001,187.036194 34.543629,187.026855 34.202152,187.082153 
	C33.239651,187.430252 32.618622,187.723068 31.997595,188.015884 
	C31.011147,184.984650 29.878040,181.991135 29.085865,178.909958 
	C28.480637,176.555862 28.306940,174.090820 27.876959,171.252594 
	C28.119509,168.953568 28.426386,167.077118 29.133123,165.024490 
z"/>
<path fill="#EBC8B0" opacity="1.000000" stroke="none" 
	d="
M158.041107,171.143097 
	C158.011078,176.957687 158.085281,182.776337 157.858780,188.583267 
	C157.815964,189.680771 156.577698,190.731644 155.891037,191.804031 
	C155.287781,190.672455 154.227478,189.567856 154.158875,188.404739 
	C153.828720,182.808411 153.766174,177.196304 153.278351,171.398788 
	C153.369370,168.813080 151.176895,165.196762 156.266724,164.774384 
	C156.716461,165.234772 156.829819,165.747559 156.997559,166.877548 
	C157.051910,167.494751 157.195465,167.922165 157.152466,168.270935 
	C157.420013,169.460831 157.730560,170.301956 158.041107,171.143097 
z"/>
<path fill="#E24643" opacity="1.000000" stroke="none" 
	d="
M158.505646,171.114441 
	C157.730560,170.301956 157.420013,169.460831 157.329132,168.183014 
	C157.771835,167.583176 157.913361,167.366714 157.973373,167.096970 
	C165.348923,167.035446 172.724457,166.973923 180.640594,167.159317 
	C181.442642,167.310608 181.704132,167.214996 181.965607,167.119400 
	C185.001358,171.735031 181.157516,170.868515 178.329193,171.225616 
	C171.592987,171.229614 165.281586,171.157700 158.505646,171.114441 
z"/>
<path fill="#7E5F56" opacity="1.000000" stroke="none" 
	d="
M36.519257,130.228607 
	C33.046585,128.029068 29.426134,126.014397 26.234482,123.463264 
	C25.644760,122.991890 26.787823,120.352684 27.422070,118.577675 
	C28.142319,119.296394 28.571613,120.151482 29.145061,121.317352 
	C30.554810,124.302261 32.160938,125.091850 35.548500,125.472893 
	C40.349770,126.012955 43.233524,123.049072 47.034203,122.412354 
	C44.926594,125.167778 42.846756,127.566689 40.342102,129.974518 
	C38.784603,130.065155 37.651928,130.146881 36.519257,130.228607 
z"/>
<path fill="#543E39" opacity="1.000000" stroke="none" 
	d="
M29.000908,121.006569 
	C28.571613,120.151482 28.142319,119.296394 27.491760,118.235580 
	C27.224045,117.262253 27.177595,116.494644 27.435991,115.193863 
	C27.750092,114.334373 27.759350,114.008057 27.768606,113.681747 
	C29.986357,111.569313 32.204105,109.456886 34.707726,107.147858 
	C36.518909,107.104263 38.044220,107.257248 40.139721,107.587967 
	C41.823330,108.841820 42.936752,109.917946 43.640511,111.011230 
	C40.896828,111.648979 38.593483,112.446846 36.223049,112.856949 
	C29.063911,114.095528 29.053757,114.036835 29.000908,121.006569 
z"/>
<path fill="#FCF9FA" opacity="1.000000" stroke="none" 
	d="
M140.341278,209.995667 
	C139.854507,206.354279 139.503403,202.691025 139.830460,199.089325 
	C139.958969,197.674332 141.604584,196.397095 142.559311,195.057129 
	C143.369949,196.418610 144.733505,197.723587 144.879578,199.152985 
	C145.214478,202.430603 144.955475,205.768906 144.874649,209.544037 
	C143.457260,210.003128 142.102814,210.000778 140.341278,209.995667 
z"/>
<path fill="#4E4B4D" opacity="1.000000" stroke="none" 
	d="
M192.630981,143.426620 
	C193.340256,141.951599 194.106873,140.809494 195.187134,139.398254 
	C195.500793,139.129150 195.793152,139.176331 195.793152,139.176331 
	C197.456863,140.449112 199.120590,141.721909 201.062256,143.084229 
	C201.540390,143.950882 201.740570,144.727966 202.293045,146.872757 
	C198.576553,145.668121 195.632446,144.713821 192.630981,143.426620 
z"/>
<path fill="#4B4442" opacity="1.000000" stroke="none" 
	d="
M34.543629,187.026855 
	C34.543629,187.026855 34.478001,187.036194 34.491173,187.452881 
	C35.323063,189.591492 36.141785,191.313416 36.960510,193.035355 
	C36.964561,193.580887 36.968616,194.126434 36.962090,194.945160 
	C35.178722,194.739563 32.306519,198.112015 31.665785,193.311462 
	C31.828678,191.899475 31.980545,190.882324 32.509903,189.486877 
	C33.439472,188.414658 33.991550,187.720764 34.543629,187.026855 
z"/>
<path fill="#987063" opacity="1.000000" stroke="none" 
	d="
M36.571129,130.525543 
	C37.651928,130.146881 38.784603,130.065155 40.327660,130.314392 
	C41.547569,131.312790 42.357101,131.980255 43.166634,132.647705 
	C40.793369,134.083237 38.652676,139.771652 35.827400,132.678772 
	C36.088696,131.813354 36.355850,131.317932 36.571129,130.525543 
z"/>
<path fill="#DE2A25" opacity="1.000000" stroke="none" 
	d="
M181.732819,167.056824 
	C181.704132,167.214996 181.442642,167.310608 181.103943,167.246063 
	C181.026733,167.085922 181.500031,166.994263 181.732819,167.056824 
z"/>
<path fill="#5A5ACE" opacity="1.000000" stroke="none" 
	d="
M214.715500,193.073669 
	C214.670761,193.235611 214.406235,193.285583 214.073456,193.174530 
	C214.005173,193.013504 214.495728,192.961685 214.715500,193.073669 
z"/>
<path fill="#7E5F56" opacity="1.000000" stroke="none" 
	d="
M27.592402,113.856140 
	C27.759350,114.008057 27.750092,114.334373 27.547226,114.824341 
	C27.209812,114.658081 27.230671,114.338928 27.592402,113.856140 
z"/>
<path fill="#DE2A25" opacity="1.000000" stroke="none" 
	d="
M157.734253,167.047974 
	C157.913361,167.366714 157.771835,167.583176 157.372131,167.834259 
	C157.195465,167.922165 157.051910,167.494751 157.030533,167.270309 
	C157.009155,167.045868 157.495117,166.998978 157.734253,167.047974 
z"/>
<path fill="#60504D" opacity="1.000000" stroke="none" 
	d="
M29.109564,75.403061 
	C31.242918,75.957596 33.162750,76.801453 35.279217,77.908478 
	C32.734997,79.750267 29.994146,81.328873 26.954311,83.079689 
	C25.954325,81.382820 25.002062,79.766937 23.895075,77.888496 
	C25.669296,77.109367 27.282669,76.400871 29.109564,75.403061 
z"/>
<path fill="#2F74B6" opacity="1.000000" stroke="none" 
	d="
M196.155579,138.989502 
	C195.793152,139.176331 195.500793,139.129150 195.354492,139.134674 
	C194.807739,136.425980 194.106339,133.716644 194.061951,130.996597 
	C193.915237,122.004990 194.005768,122.060219 184.751999,121.976685 
	C180.830368,121.941284 176.911392,121.611404 172.631866,121.246010 
	C172.223984,120.650871 172.175446,120.225090 172.461060,119.239113 
	C172.900757,116.768410 173.006302,114.857910 173.111847,112.947403 
	C176.096390,112.996819 179.080933,113.046242 182.510498,113.152397 
	C184.264359,114.146263 185.453293,115.440834 186.912292,115.930153 
	C188.740982,116.543457 190.791245,116.496010 193.183060,116.794556 
	C195.403870,118.635956 197.187500,120.416542 199.018539,122.548828 
	C199.044449,126.635155 199.265915,130.394470 198.889877,134.093048 
	C198.723816,135.726425 197.345825,137.236572 196.155579,138.989502 
z"/>
<path fill="#FCF9FA" opacity="1.000000" stroke="none" 
	d="
M43.518719,132.736115 
	C42.357101,131.980255 41.547569,131.312790 40.752480,130.305466 
	C42.846756,127.566689 44.926594,125.167778 47.223854,122.311310 
	C47.441273,121.853752 47.817970,121.645737 47.817970,121.645737 
	C59.277294,121.757294 70.736618,121.868858 82.677658,121.996086 
	C78.450142,126.753098 78.160576,137.817978 82.801910,143.045776 
	C82.983955,143.464325 82.897789,143.792053 82.440063,143.727844 
	C80.173508,143.655151 78.360146,143.559418 76.556618,143.653152 
	C68.391830,144.077560 60.229820,144.555496 51.950359,144.731476 
	C51.756599,144.260239 51.679291,144.071655 51.601982,143.883057 
	C52.092457,138.625900 50.108078,135.787491 43.518719,132.736115 
z"/>
<path fill="#E0423F" opacity="1.000000" stroke="none" 
	d="
M134.910110,144.883728 
	C135.194702,145.629517 135.479294,146.375290 135.321564,147.439087 
	C122.058846,147.760086 109.233902,147.582840 96.421501,147.904709 
	C93.556618,147.976700 90.735725,149.799332 87.587883,150.989059 
	C86.604462,153.109726 85.927727,155.057327 85.177750,157.376068 
	C85.222084,158.487610 85.339676,159.228012 85.483101,160.291260 
	C87.351562,162.365799 89.194176,164.117508 91.333527,166.087067 
	C94.290291,168.670242 96.642441,169.555618 97.934738,164.594666 
	C97.974953,162.785507 97.944786,161.389755 98.186523,159.684235 
	C101.535828,159.298935 104.613220,159.223404 107.732956,159.573608 
	C107.861481,161.998505 107.947678,163.997650 108.019684,166.430420 
	C109.120636,167.242661 110.232033,167.934464 111.351562,167.947891 
	C117.572083,168.022522 123.794579,167.932434 130.011017,168.250244 
	C129.704041,169.444885 129.402435,170.288040 128.626526,171.107056 
	C121.571228,171.082916 114.990227,171.082916 108.187286,171.082916 
	C107.992310,174.080139 107.829140,176.588364 107.598763,180.129761 
	C104.272049,175.376602 101.286186,177.367249 98.184517,179.600250 
	C98.041794,176.525772 97.922447,173.954849 97.797333,171.259750 
	C94.928925,171.098068 92.474304,170.959717 89.793610,170.581024 
	C86.721733,167.344330 82.666054,164.818710 81.279381,161.254623 
	C78.297531,153.590561 82.788620,148.205490 89.463081,144.070526 
	C102.662392,144.026276 115.394043,144.069595 128.122681,143.893921 
	C129.778717,143.871063 131.419159,142.720123 133.066833,142.091721 
	C133.066833,142.091721 133.490707,141.981461 133.763199,142.232452 
	C134.079407,142.661163 134.123138,142.838882 134.135956,143.289825 
	C134.373413,144.003250 134.641754,144.443497 134.910110,144.883728 
z"/>
<path fill="#A55636" opacity="1.000000" stroke="none" 
	d="
M134.015793,136.340561 
	C133.770248,133.459030 133.524689,130.577499 133.266357,127.545860 
	C137.492065,126.897369 141.654343,126.119789 145.851166,125.651688 
	C150.498871,125.133308 152.349457,127.639854 150.658661,132.921692 
	C146.769867,133.173599 143.445694,133.437485 140.206848,133.027344 
	C137.124771,132.637070 135.164932,133.520493 134.015793,136.340561 
z"/>
<path fill="#F7C9AC" opacity="1.000000" stroke="none" 
	d="
M134.004547,136.665222 
	C135.164932,133.520493 137.124771,132.637070 140.206848,133.027344 
	C143.445694,133.437485 146.769867,133.173599 150.516785,133.282166 
	C151.461472,134.510544 151.946152,135.661011 151.981049,137.056412 
	C151.246231,137.499603 151.053452,137.764923 150.490631,138.046921 
	C144.675797,138.096313 139.323212,138.196106 133.970627,138.295898 
	C133.978180,137.860565 133.985748,137.425232 134.004547,136.665222 
z"/>
<path fill="#F4F4FA" opacity="1.000000" stroke="none" 
	d="
M110.227631,131.280365 
	C112.169731,128.446472 114.544693,127.824844 116.558311,130.187439 
	C117.401161,131.176346 117.288574,133.603790 116.686539,134.970123 
	C116.314491,135.814468 113.600761,136.644135 112.994514,136.159409 
	C111.675537,135.104767 111.032829,133.204361 110.227631,131.280365 
z"/>
<path fill="#F4F4FA" opacity="1.000000" stroke="none" 
	d="
M106.004639,133.573792 
	C104.199371,134.661209 102.407066,135.941620 100.720116,135.815277 
	C99.919098,135.755295 98.651978,132.917786 98.849243,131.514771 
	C98.994408,130.482254 101.729256,128.725632 102.337555,129.060165 
	C103.871643,129.903824 104.856110,131.746933 106.004639,133.573792 
z"/>
<path fill="#F4F4FA" opacity="1.000000" stroke="none" 
	d="
M94.834991,132.812225 
	C93.244873,134.249252 91.751228,135.869217 90.046494,136.134949 
	C89.245590,136.259811 87.396759,133.855347 87.227058,132.451508 
	C87.101189,131.410309 89.334991,128.994812 89.794731,129.163361 
	C91.631676,129.836838 93.186028,131.281082 94.834991,132.812225 
z"/>
<path fill="#C85D75" opacity="1.000000" stroke="none" 
	d="
M132.800934,142.048462 
	C131.419159,142.720123 129.778717,143.871063 128.122681,143.893921 
	C115.394043,144.069595 102.662392,144.026276 89.084595,144.043854 
	C87.476944,144.055206 86.716370,144.073654 85.758301,144.009125 
	C85.289795,143.806351 85.082069,143.617111 84.937622,143.358398 
	C99.663116,143.233643 114.388611,143.108902 129.879395,142.961517 
	C131.095261,142.631912 131.545853,142.324951 131.996429,142.017975 
	C132.175964,142.013718 132.355499,142.009445 132.800934,142.048462 
z"/>
<path fill="#15110F" opacity="1.000000" stroke="none" 
	d="
M134.058304,138.511581 
	C139.323212,138.196106 144.675797,138.096313 150.360962,138.449936 
	C150.324036,140.189102 146.562637,137.533752 148.092834,140.916016 
	C148.036102,140.739258 147.695190,140.592087 147.591766,140.166351 
	C146.674667,139.635849 145.860992,139.531082 144.878830,139.364853 
	C144.469482,139.503525 144.228592,139.703644 143.728180,139.865540 
	C143.314911,139.910645 143.161163,139.993988 143.007431,140.077316 
	C141.914093,139.798889 140.820755,139.520447 139.020935,139.208099 
	C137.127533,139.409332 135.940582,139.644485 134.598328,139.820160 
	C134.443008,139.760681 134.126709,139.657654 134.126709,139.657654 
	C134.140121,139.347672 134.146545,139.037537 134.058304,138.511581 
z"/>
<path fill="#F6CBB1" opacity="1.000000" stroke="none" 
	d="
M148.149582,141.092789 
	C146.562637,137.533752 150.324036,140.189102 150.823227,138.500336 
	C151.053452,137.764923 151.246231,137.499603 151.768219,137.228668 
	C152.045181,138.122192 152.085190,139.088394 152.164368,140.410583 
	C151.803101,141.163803 151.402679,141.561020 150.654755,142.360840 
	C149.588013,142.206558 148.868790,141.649673 148.149582,141.092789 
z"/>
<path fill="#FC574C" opacity="1.000000" stroke="none" 
	d="
M84.644409,143.302277 
	C85.082069,143.617111 85.289795,143.806351 85.555305,144.249847 
	C84.665794,144.313049 83.781792,144.052551 82.897789,143.792053 
	C82.897789,143.792053 82.983955,143.464325 83.074516,143.320862 
	C83.560448,143.200302 83.955826,143.223221 84.644409,143.302277 
z"/>
<path fill="#4854B9" opacity="1.000000" stroke="none" 
	d="
M156.834076,142.657654 
	C156.065125,142.510223 155.151657,142.077148 154.090027,141.358978 
	C154.857758,141.506592 155.773666,141.939316 156.834076,142.657654 
z"/>
<path fill="#60504D" opacity="1.000000" stroke="none" 
	d="
M134.070190,140.037537 
	C134.126709,139.657654 134.443008,139.760681 134.644287,140.235031 
	C135.136795,141.472672 135.428040,142.235962 135.331055,142.993988 
	C134.684189,142.998016 134.425522,143.007324 134.166855,143.016617 
	C134.123138,142.838882 134.079407,142.661163 133.981415,142.214035 
	C133.955963,141.435547 133.984818,140.926468 134.070190,140.037537 
z"/>
<path fill="#4854B9" opacity="1.000000" stroke="none" 
	d="
M131.713470,142.029388 
	C131.545853,142.324951 131.095261,142.631912 130.348480,142.906509 
	C130.511688,142.596359 130.971100,142.318573 131.713470,142.029388 
z"/>
<path fill="#FEFEFE" opacity="1.000000" stroke="none" 
	d="
M143.027939,117.084465 
	C141.591461,117.313797 140.155197,117.741745 138.718491,117.743149 
	C109.178123,117.772018 79.637711,117.752281 49.435276,117.497162 
	C47.872128,115.831085 46.971004,114.410049 46.533356,112.996521 
	C78.894905,113.011604 110.792984,113.019165 142.771667,113.426003 
	C142.910812,114.911674 142.969376,115.998070 143.027939,117.084465 
z"/>
<path fill="#976C5D" opacity="1.000000" stroke="none" 
	d="
M46.069878,112.989006 
	C46.971004,114.410049 47.872128,115.831085 48.978519,117.500122 
	C48.857880,118.851639 48.531971,119.955170 48.012016,121.352219 
	C47.817970,121.645737 47.441273,121.853752 47.251625,121.954796 
	C43.233524,123.049072 40.349770,126.012955 35.548500,125.472893 
	C32.160938,125.091850 30.554810,124.302261 29.145061,121.317352 
	C29.053757,114.036835 29.063911,114.095528 36.223049,112.856949 
	C38.593483,112.446846 40.896828,111.648979 43.764866,110.932770 
	C44.298885,110.837143 44.588089,110.889610 44.510941,111.167343 
	C44.979153,111.959724 45.524517,112.474365 46.069878,112.989006 
z"/>
<path fill="#FC574C" opacity="1.000000" stroke="none" 
	d="
M143.392120,117.085854 
	C142.969376,115.998070 142.910812,114.911674 142.851624,113.087074 
	C142.798019,111.890762 142.745056,111.432663 142.772186,110.583694 
	C142.800674,109.135147 142.749069,108.077469 142.697464,107.019783 
	C142.780960,104.646576 142.864441,102.273361 142.978302,99.455688 
	C147.940186,99.628960 150.241730,102.998299 150.537964,107.396492 
	C150.854523,112.096359 148.515671,115.604103 143.392120,117.085854 
z"/>
<path fill="#F1F1F3" opacity="1.000000" stroke="none" 
	d="
M189.539368,96.104568 
	C191.586151,96.884224 193.290512,97.929359 195.336090,98.972046 
	C193.633942,103.207695 191.590576,107.445778 189.253052,111.879471 
	C189.038254,106.840065 189.117615,101.605057 189.539368,96.104568 
z"/>
<path fill="#EEE8E7" opacity="1.000000" stroke="none" 
	d="
M173.070587,112.485916 
	C173.006302,114.857910 172.900757,116.768410 172.459961,118.918060 
	C171.780167,115.977165 171.152359,112.796165 171.163193,109.617348 
	C171.176620,105.690315 171.720703,101.765091 172.036011,97.372147 
	C172.367477,101.944946 172.698410,106.984695 173.070587,112.485916 
z"/>
<path fill="#FEFEFE" opacity="1.000000" stroke="none" 
	d="
M142.249252,107.015114 
	C142.749069,108.077469 142.800674,109.135147 142.324615,110.589783 
	C109.394005,110.954361 76.991051,110.921982 44.588089,110.889610 
	C44.588089,110.889610 44.298885,110.837143 44.174530,110.915604 
	C42.936752,109.917946 41.823330,108.841820 40.506508,107.471565 
	C74.135757,107.121773 107.968399,107.066109 142.249252,107.015114 
z"/>
<path fill="#6EB4B5" opacity="1.000000" stroke="none" 
	d="
M90.019676,170.821350 
	C92.474304,170.959717 94.928925,171.098068 97.797333,171.259750 
	C97.922447,173.954849 98.041794,176.525772 98.184517,179.600250 
	C101.286186,177.367249 104.272049,175.376602 107.598763,180.129761 
	C107.829140,176.588364 107.992310,174.080139 108.187286,171.082916 
	C114.990227,171.082916 121.571228,171.082916 128.632324,171.566223 
	C129.113174,177.373413 128.978271,182.703140 129.205795,188.017319 
	C129.265976,189.423065 130.442719,190.780991 131.106750,192.160873 
	C131.716583,191.957993 132.326416,191.755096 132.936249,191.552200 
	C132.936249,186.282272 132.814850,181.007782 133.012390,175.745270 
	C133.069489,174.224518 134.042938,172.738190 134.596268,171.236069 
	C134.810654,177.071304 135.025055,182.906525 135.563141,189.057327 
	C135.902969,190.315536 135.919128,191.258163 135.903214,192.552551 
	C117.892906,192.926559 99.914665,192.948837 81.468140,192.991501 
	C75.694572,193.030380 70.389297,193.048859 64.635574,193.031250 
	C61.722355,192.937851 59.257572,192.880585 56.029152,192.542923 
	C52.337170,192.083679 49.408825,191.904846 46.526817,191.728836 
	C46.326138,189.934097 46.167152,188.512238 46.302586,186.838501 
	C48.105789,181.027084 49.614571,175.467514 51.533970,169.970276 
	C53.374458,170.310211 54.803253,170.821732 56.234383,170.828339 
	C67.495895,170.880447 78.757858,170.836044 90.019676,170.821350 
z"/>
<path fill="#F3F3F3" opacity="1.000000" stroke="none" 
	d="
M85.250999,157.004929 
	C85.927727,155.057327 86.604462,153.109726 87.869484,151.315704 
	C90.239983,151.646393 92.021698,151.971283 93.804459,151.977051 
	C107.179787,152.020386 120.555550,151.963745 133.930496,152.046844 
	C135.640335,152.057480 137.346268,152.693695 139.054016,153.040115 
	C139.054016,153.040115 139.051773,153.408417 139.067871,153.591644 
	C137.361130,154.811569 135.638275,155.848251 133.118591,156.963104 
	C116.631500,157.029175 100.941246,157.017044 85.250999,157.004929 
z"/>
<path fill="#F5F5F5" opacity="1.000000" stroke="none" 
	d="
M108.033875,165.996796 
	C107.947678,163.997650 107.861481,161.998505 108.221527,159.530426 
	C116.179237,159.403183 123.690712,159.744888 131.202179,160.086578 
	C130.902283,161.431519 130.602371,162.776459 129.940948,164.515900 
	C122.397583,165.272537 115.215729,165.634659 108.033875,165.996796 
z"/>
<path fill="#FCF9FA" opacity="1.000000" stroke="none" 
	d="
M131.454758,159.908844 
	C123.690712,159.744888 116.179237,159.403183 108.179199,159.104675 
	C104.613220,159.223404 101.535828,159.298935 97.733109,159.687744 
	C93.157616,159.990143 89.307442,159.979263 85.457260,159.968399 
	C85.339676,159.228012 85.222084,158.487610 85.177750,157.376068 
	C100.941246,157.017044 116.631500,157.029175 132.809280,157.071136 
	C132.766983,157.977692 132.237167,158.854416 131.454758,159.908844 
z"/>
<path fill="#EEC8AF" opacity="1.000000" stroke="none" 
	d="
M134.535095,170.814270 
	C134.042938,172.738190 133.069489,174.224518 133.012390,175.745270 
	C132.814850,181.007782 132.936249,186.282272 132.936249,191.552200 
	C132.326416,191.755096 131.716583,191.957993 131.106750,192.160873 
	C130.442719,190.780991 129.265976,189.423065 129.205795,188.017319 
	C128.978271,182.703140 129.113174,177.373413 129.106628,171.590347 
	C129.402435,170.288040 129.704041,169.444885 130.101883,167.952240 
	C130.463409,166.533020 130.728699,165.763290 130.993988,164.993576 
	C135.129547,164.875275 134.390213,167.899124 134.535095,170.814270 
z"/>
<path fill="#F9EAE9" opacity="1.000000" stroke="none" 
	d="
M130.895874,164.881317 
	C130.728699,165.763290 130.463409,166.533020 130.107269,167.600739 
	C123.794579,167.932434 117.572083,168.022522 111.351562,167.947891 
	C110.232033,167.934464 109.120636,167.242661 108.019684,166.430420 
	C115.215729,165.634659 122.397583,165.272537 130.040161,164.853638 
	C130.500885,164.796860 130.797760,164.769058 130.895874,164.881317 
z"/>
<path fill="#9D6C5C" opacity="1.000000" stroke="none" 
	d="
M51.198612,143.902740 
	C51.679291,144.071655 51.756599,144.260239 52.051723,145.100494 
	C54.562866,152.072723 55.433681,158.147980 49.475620,163.173492 
	C49.076267,163.510315 49.119678,164.372101 48.633072,165.026855 
	C47.189266,165.992355 46.069550,166.920700 44.663208,167.983276 
	C43.211643,167.779449 42.046692,167.441376 40.881744,167.103302 
	C41.491173,166.338486 41.978298,165.415527 42.729733,164.834305 
	C47.880993,160.850037 49.638157,155.647079 49.038803,149.252762 
	C48.878811,147.545853 50.170193,145.702911 51.198612,143.902740 
z"/>
<path fill="#2C679E" opacity="1.000000" stroke="none" 
	d="
M40.490807,167.077927 
	C42.046692,167.441376 43.211643,167.779449 44.678040,168.394043 
	C44.956722,169.490875 44.933952,170.311172 44.457756,171.094925 
	C40.350960,171.068375 36.697586,171.078369 33.044216,171.088379 
	C33.029408,170.300385 33.014595,169.512390 33.005356,168.329285 
	C34.223137,167.801529 35.435341,167.668869 36.796768,167.270248 
	C37.997276,167.020370 39.048573,167.036453 40.490807,167.077927 
z"/>
<path fill="#FFFFFF" opacity="1.000000" stroke="none" 
	d="
M135.041061,196.940613 
	C135.612915,198.708130 135.679901,200.436508 135.676437,202.588654 
	C116.380753,203.009491 97.155518,203.006577 77.460953,203.001831 
	C78.462204,198.233170 82.027451,196.847916 86.609253,196.862198 
	C102.584778,196.912033 118.560516,196.893845 135.041061,196.940613 
z"/>
<path fill="#6EAFB5" opacity="1.000000" stroke="none" 
	d="
M33.082565,171.484741 
	C36.697586,171.078369 40.350960,171.068375 44.306404,171.444153 
	C43.899860,175.550507 43.319870,179.301682 42.444012,182.982468 
	C41.672165,186.226135 43.330338,187.016647 46.008167,187.090378 
	C46.167152,188.512238 46.326138,189.934097 46.526817,191.728836 
	C49.408825,191.904846 52.337170,192.083679 55.574669,192.494415 
	C52.884094,193.474182 49.884361,194.222061 46.498863,195.003174 
	C43.349472,194.367218 40.585846,193.698044 37.391365,193.032104 
	C36.141785,191.313416 35.323063,189.591492 34.500828,187.484589 
	C34.038513,182.026779 33.579712,176.953934 33.082565,171.484741 
z"/>
<path fill="#B38D7C" opacity="1.000000" stroke="none" 
	d="
M148.092834,140.916016 
	C148.868790,141.649673 149.588013,142.206558 150.596741,142.636932 
	C150.942429,142.735229 150.998611,142.960022 151.145905,143.520233 
	C149.207611,143.856094 147.178177,143.856522 145.050568,143.447632 
	C144.952362,143.038315 145.169571,142.821487 145.528748,142.792404 
	C146.490341,142.039581 147.092773,141.315842 147.695190,140.592087 
	C147.695190,140.592087 148.036102,140.739258 148.092834,140.916016 
z"/>
<path fill="#FEFDFD" opacity="1.000000" stroke="none" 
	d="
M139.392029,153.016937 
	C137.346268,152.693695 135.640335,152.057480 133.930496,152.046844 
	C120.555550,151.963745 107.179787,152.020386 93.804459,151.977051 
	C92.021698,151.971283 90.239983,151.646393 88.176178,151.142639 
	C90.735725,149.799332 93.556618,147.976700 96.421501,147.904709 
	C109.233902,147.582840 122.058846,147.760086 135.333221,147.743988 
	C137.423782,148.767929 139.097092,149.756561 140.635376,150.923279 
	C140.776093,151.030014 140.052353,152.276505 139.392029,153.016937 
z"/>
<path fill="#B38D7C" opacity="1.000000" stroke="none" 
	d="
M134.135956,143.289825 
	C134.425522,143.007324 134.684189,142.998016 135.652435,143.004028 
	C137.017288,142.969589 137.672562,142.919830 138.498871,142.715393 
	C139.065399,142.325348 139.460922,142.089996 139.856430,141.854630 
	C142.253601,147.937943 136.878860,143.580978 135.326202,144.900497 
	C134.641754,144.443497 134.373413,144.003250 134.135956,143.289825 
z"/>
<path fill="#DAB39C" opacity="1.000000" stroke="none" 
	d="
M138.327850,142.870087 
	C137.672562,142.919830 137.017288,142.969589 136.040649,143.009293 
	C135.428040,142.235962 135.136795,141.472672 134.799606,140.294510 
	C135.940582,139.644485 137.127533,139.409332 138.683502,139.271439 
	C139.090149,139.695847 139.087524,140.022675 138.726501,140.703201 
	C138.381485,141.661514 138.354660,142.265808 138.327850,142.870087 
z"/>
<path fill="#B38D7C" opacity="1.000000" stroke="none" 
	d="
M143.987701,139.903763 
	C144.228592,139.703644 144.469482,139.503525 144.874329,139.791687 
	C145.082062,141.127151 145.125809,141.974319 145.169556,142.821487 
	C145.169571,142.821487 144.952362,143.038315 144.840790,143.146942 
	C144.441711,142.704086 144.154221,142.152603 143.885880,141.021057 
	C143.932587,140.261932 143.960144,140.082855 143.987701,139.903763 
z"/>
<path fill="#15110F" opacity="1.000000" stroke="none" 
	d="
M138.498871,142.715408 
	C138.354660,142.265808 138.381485,141.661514 138.715271,140.948471 
	C139.300247,140.985703 139.548752,141.171219 139.812073,141.625458 
	C139.460922,142.089996 139.065399,142.325348 138.498871,142.715408 
z"/>
<path fill="#F0C5AF" opacity="1.000000" stroke="none" 
	d="
M143.728180,139.865540 
	C143.960144,140.082855 143.932587,140.261932 143.840851,140.705017 
	C143.524902,140.853287 143.322876,140.679703 143.089020,140.262787 
	C143.161163,139.993988 143.314911,139.910645 143.728180,139.865540 
z"/>
<path fill="#6EAFB5" opacity="1.000000" stroke="none" 
	d="
M34.202152,187.082153 
	C33.991550,187.720764 33.439472,188.414658 32.535187,189.176300 
	C32.142197,189.040802 32.101410,188.837555 32.029110,188.325104 
	C32.618622,187.723068 33.239651,187.430252 34.202152,187.082153 
z"/>
<path fill="#FE594E" opacity="1.000000" stroke="none" 
	d="
M48.957153,164.989716 
	C49.119678,164.372101 49.076267,163.510315 49.475620,163.173492 
	C55.433681,158.147980 54.562866,152.072723 52.168175,145.383179 
	C60.229820,144.555496 68.391830,144.077560 76.556618,143.653152 
	C78.360146,143.559418 80.173508,143.655151 82.440063,143.727844 
	C83.781792,144.052551 84.665794,144.313049 85.752792,144.332825 
	C86.716370,144.073654 87.476944,144.055206 88.616013,144.063431 
	C82.788620,148.205490 78.297531,153.590561 81.279381,161.254623 
	C82.666054,164.818710 86.721733,167.344330 89.793610,170.581024 
	C78.757858,170.836044 67.495895,170.880447 56.234383,170.828339 
	C54.803253,170.821732 53.374458,170.310211 51.491295,169.622055 
	C50.344387,167.804245 49.650772,166.396988 48.957153,164.989716 
z"/>
<path fill="#F5EFEE" opacity="1.000000" stroke="none" 
	d="
M85.483101,160.291260 
	C89.307442,159.979263 93.157616,159.990143 97.461212,159.997498 
	C97.944786,161.389755 97.974953,162.785507 97.530472,164.589203 
	C95.049484,165.287827 93.043137,165.578506 91.036797,165.869202 
	C89.194176,164.117508 87.351562,162.365799 85.483101,160.291260 
z"/>
<path fill="#FCF9FA" opacity="1.000000" stroke="none" 
	d="
M91.333527,166.087067 
	C93.043137,165.578506 95.049484,165.287827 97.460083,165.002594 
	C96.642441,169.555618 94.290291,168.670242 91.333527,166.087067 
z"/>
<path fill="#EABFA8" opacity="1.000000" stroke="none" 
	d="
M145.528732,142.792404 
	C145.125809,141.974319 145.082062,141.127151 145.042801,139.853149 
	C145.860992,139.531082 146.674667,139.635849 147.591766,140.166351 
	C147.092773,141.315842 146.490341,142.039581 145.528732,142.792404 
z"/>
<path fill="#F3F3F3" opacity="1.000000" stroke="none" 
	d="
M44.510941,111.167343 
	C76.991051,110.921982 109.394005,110.954361 142.244537,110.980644 
	C142.745056,111.432663 142.798019,111.890762 142.771027,112.687798 
	C110.792984,113.019165 78.894905,113.011604 46.533356,112.996521 
	C45.524517,112.474365 44.979153,111.959724 44.510941,111.167343 
z"/>
<path fill="#2F74B6" opacity="1.000000" stroke="none" 
	d="
M48.633068,165.026855 
	C49.650772,166.396988 50.344387,167.804245 51.080681,169.559738 
	C49.614571,175.467514 48.105789,181.027084 46.302586,186.838501 
	C43.330338,187.016647 41.672165,186.226135 42.444012,182.982468 
	C43.319870,179.301682 43.899860,175.550507 44.759830,171.480698 
	C44.933952,170.311172 44.956722,169.490875 44.964661,168.259796 
	C46.069550,166.920700 47.189266,165.992355 48.633068,165.026855 
z"/>
</svg>